<?xml version="1.0" encoding="UTF-8" standalone="no"?>
<svg xmlns="http://www.w3.org/2000/svg" xmlns:xlink="http://www.w3.org/1999/xlink" width="110.060mm" height="83.594mm" viewBox="14.969890 -97.797150 110.060219 83.594307">
    <path transform="matrix(1,0,0,-1,0,0)" style="stroke:none;fill:#000000;fill-rule:evenodd" d="M115.180237,58.372543C115.378677,58.463493,115.574356,58.491051,115.764526,58.455223C115.951942,58.42215,116.104904,58.307774,116.222038,58.113472C116.312988,57.950863,116.339165,57.757935,116.299202,57.534695C116.259239,57.310074,116.139351,57.157112,115.940918,57.077187C115.838943,57.028954,115.735588,56.980724,115.632233,56.933868C115.530258,56.889771,115.42691,56.845676,115.323555,56.801579C115.136139,56.720276,114.945969,56.696846,114.75029,56.729919C114.555984,56.762993,114.400269,56.873238,114.281761,57.06065C114.190804,57.217747,114.168762,57.409294,114.215614,57.633911C114.259712,57.86129,114.375465,58.015633,114.562874,58.096931C114.666229,58.152054,114.769585,58.19891,114.871559,58.24025C114.974915,58.280212,115.078262,58.32431,115.180237,58.372543z"/>
    <path transform="matrix(1,0,0,-1,0,0)" style="stroke:none;fill:#000000;fill-rule:evenodd" d="M123.613831,49.591682C123.730965,49.812172,123.881172,49.934814,124.065826,49.960999C124.249107,49.989937,124.429626,49.952728,124.606018,49.850754C124.785164,49.747406,124.911942,49.604088,124.986359,49.420807C125.06353,49.236145,125.044235,49.040466,124.931236,48.831009C124.677673,48.348694,124.385529,47.800232,124.054802,47.182877C123.72683,46.565514,123.365784,45.932991,122.96891,45.28669C122.572037,44.64315,122.139328,44.032677,121.673553,43.456657C121.206398,42.879257,120.706169,42.392815,120.174248,41.995941C119.645081,41.59906,119.080086,41.342751,118.482018,41.229752C117.790245,41.089188,117.222488,41.207703,116.778763,41.582527C116.337791,41.957352,116.031868,42.460335,115.858231,43.092857C115.659798,43.853531,115.588135,44.65004,115.643257,45.48513C115.695625,46.322975,115.761772,47.11673,115.841698,47.866379C115.89682,48.31424,115.957451,48.7621,116.023598,49.211349C116.08699,49.65921,116.139351,50.109825,116.183449,50.561821C116.209633,50.7892,116.23719,51.015198,116.266136,51.239815C116.290939,51.467194,116.310226,51.689056,116.321251,51.906784C116.63269,53.163559,116.166916,53.243484,114.921165,52.149323C114.819191,51.931595,114.675873,51.80481,114.491219,51.768982C114.307938,51.735909,114.130173,51.766228,113.956543,51.862686C113.784286,51.961906,113.661644,52.106606,113.587227,52.298149C113.510056,52.488319,113.523834,52.692268,113.625809,52.910004C113.766373,53.210411,113.966187,53.524605,114.226639,53.852577C114.484329,54.179173,114.777855,54.464424,115.108582,54.706963C115.436554,54.949493,115.781059,55.087299,116.144867,55.120373C116.504532,55.1562,116.857307,55.018394,117.203201,54.706963C117.536682,54.420326,117.761307,54.039989,117.875679,53.565945C117.992813,53.094658,118.038292,52.58065,118.013481,52.022545C117.99144,51.463058,117.928047,50.898064,117.826073,50.324799C117.722717,49.754288,117.61937,49.216858,117.517387,48.70974C117.41404,48.202621,117.343758,47.769913,117.30793,47.414383C117.285881,47.160828,117.254189,46.825958,117.214226,46.411171C117.172882,45.995003,117.153587,45.563675,117.153587,45.115814C117.153587,44.666573,117.19355,44.25592,117.274857,43.881096C117.354782,43.506264,117.507744,43.222389,117.732368,43.032219C117.955605,42.84481,118.269798,42.81311,118.674942,42.938515C118.972603,43.029465,119.26474,43.219635,119.551376,43.506264C119.840767,43.795654,120.109482,44.109848,120.356148,44.448845C120.605576,44.790596,120.810905,45.077232,120.973511,45.308739C121.480629,45.988113,121.949158,46.688156,122.379112,47.408875C122.811813,48.128204,123.223846,48.855812,123.613831,49.591682z"/>
    <path transform="matrix(1,0,0,-1,0,0)" style="stroke:none;fill:#000000;fill-rule:evenodd" d="M40.966885,58.372543C41.165325,58.463493,41.361004,58.491051,41.551174,58.455223C41.738586,58.42215,41.891548,58.307774,42.008682,58.113472C42.099632,57.950863,42.125816,57.757935,42.085854,57.534695C42.045891,57.310074,41.926003,57.157112,41.727562,57.077187C41.625587,57.028954,41.522236,56.980724,41.418884,56.933868C41.31691,56.889771,41.213554,56.845676,41.110203,56.801579C40.922791,56.720276,40.73262,56.696846,40.536938,56.729919C40.342636,56.762993,40.186916,56.873238,40.068405,57.06065C39.977455,57.217747,39.955406,57.409294,40.002258,57.633911C40.046356,57.86129,40.162113,58.015633,40.349525,58.096931C40.452877,58.152054,40.556232,58.19891,40.658207,58.24025C40.761559,58.280212,40.86491,58.32431,40.966885,58.372543z"/>
    <path transform="matrix(1,0,0,-1,0,0)" style="stroke:none;fill:#000000;fill-rule:evenodd" d="M49.400478,49.591682C49.517612,49.812172,49.66782,49.934814,49.852474,49.960999C50.035755,49.989937,50.216278,49.952728,50.392666,49.850754C50.571812,49.747406,50.698593,49.604088,50.773006,49.420807C50.850174,49.236145,50.830883,49.040466,50.717884,48.831009C50.464325,48.348694,50.17218,47.800232,49.841454,47.182877C49.513477,46.565514,49.152431,45.932991,48.755558,45.28669C48.358681,44.64315,47.92598,44.032677,47.460201,43.456657C46.993046,42.879257,46.492821,42.392815,45.960896,41.995941C45.431728,41.59906,44.866734,41.342751,44.268665,41.229752C43.576889,41.089188,43.00914,41.207703,42.565411,41.582527C42.124439,41.957352,41.818512,42.460335,41.644882,43.092857C41.446442,43.853531,41.374786,44.65004,41.429909,45.48513C41.482273,46.322975,41.54842,47.11673,41.628345,47.866379C41.683468,48.31424,41.744099,48.7621,41.810246,49.211349C41.873634,49.65921,41.926003,50.109825,41.970097,50.561821C41.996281,50.7892,42.023842,51.015198,42.05278,51.239815C42.077583,51.467194,42.096878,51.689056,42.107903,51.906784C42.419338,53.163559,41.95356,53.243484,40.707813,52.149323C40.605839,51.931595,40.462524,51.80481,40.277866,51.768982C40.094589,51.735909,39.916821,51.766228,39.743187,51.862686C39.570934,51.961906,39.448288,52.106606,39.373875,52.298149C39.296703,52.488319,39.310486,52.692268,39.41246,52.910004C39.55302,53.210411,39.752834,53.524605,40.013283,53.852577C40.270977,54.179173,40.564499,54.464424,40.895229,54.706963C41.223202,54.949493,41.567711,55.087299,41.931515,55.120373C42.29118,55.1562,42.643959,55.018394,42.989845,54.706963C43.32333,54.420326,43.547951,54.039989,43.662331,53.565945C43.779461,53.094658,43.824936,52.58065,43.800133,52.022545C43.778084,51.463058,43.714695,50.898064,43.61272,50.324799C43.509365,49.754288,43.406013,49.216858,43.304039,48.70974C43.200687,48.202621,43.130405,47.769913,43.094578,47.414383C43.072529,47.160828,43.040833,46.825958,43.00087,46.411171C42.95953,45.995003,42.940235,45.563675,42.940235,45.115814C42.940235,44.666573,42.980198,44.25592,43.061504,43.881096C43.14143,43.506264,43.294392,43.222389,43.519012,43.032219C43.742256,42.84481,44.056446,42.81311,44.46159,42.938515C44.759247,43.029465,45.051392,43.219635,45.338024,43.506264C45.627411,43.795654,45.89613,44.109848,46.142799,44.448845C46.392223,44.790596,46.597549,45.077232,46.760159,45.308739C47.267277,45.988113,47.735809,46.688156,48.165756,47.408875C48.598461,48.128204,49.010494,48.855812,49.400478,49.591682z"/>
    <path transform="matrix(1,0,0,-1,0,0)" style="stroke:none;fill:#000000;fill-rule:evenodd" d="M96.106293,64.590424C96.113525,64.719208,96.120728,64.847649,96.127899,64.976097C96.425537,62.09462,96.77832,59.215897,97.186218,56.338554C97.596893,53.463966,98.073669,50.600399,98.613861,47.745106C99.061737,45.414845,99.568848,43.088718,100.135223,40.76672C100.700226,38.447483,101.386475,36.164074,102.191254,33.915119C102.293243,33.628483,102.440674,33.24815,102.632233,32.774105C102.822418,32.302814,103.052521,31.799831,103.321259,31.263775C103.592712,30.726337,103.895905,30.208195,104.230743,29.709347C104.56424,29.210499,104.930817,28.781925,105.327667,28.425014C105.724548,28.06535,106.14621,27.828327,106.595459,27.713947C107.047455,27.600948,107.521515,27.66296,108.017609,27.901363C108.256012,28.030895,108.458588,28.226574,108.623932,28.491161C108.792053,28.755741,108.93399,29.05891,109.04837,29.400669C109.165497,29.739666,109.259216,30.070393,109.329498,30.392857C109.398407,30.715313,109.461792,30.990925,109.516907,31.219677C109.795258,32.384121,110.024017,33.554073,110.200409,34.730915C110.379547,35.906384,110.544922,37.080471,110.696503,38.253185C111.188477,41.871914,111.633575,45.490635,112.030457,49.106609C112.430084,52.725338,112.884827,56.338554,113.391937,59.943501C113.634491,61.659161,113.882538,63.418915,114.136078,65.224144C114.389648,67.028,114.694183,68.834602,115.051117,70.642593C115.406647,72.450577,115.858643,74.215843,116.407104,75.939766C116.954193,77.662315,117.641815,79.302185,118.468658,80.856613C118.585785,81.07296,118.606445,81.272774,118.529266,81.457428C118.454865,81.644844,118.332214,81.7854,118.159973,81.881866C117.986328,81.981087,117.804413,82.015533,117.614258,81.986603C117.426849,81.956284,117.273895,81.833633,117.156769,81.617279C116.325775,80.073883,115.647797,78.450554,115.122772,76.750053C114.600494,75.052307,114.169159,73.324249,113.827423,71.568634C113.488434,69.81163,113.171478,68.073929,112.87381,66.354134C112.307434,63.060623,111.816864,59.756088,111.402069,56.437771C110.985901,53.119457,110.583527,49.801144,110.194916,46.48283C109.99646,44.787838,109.810425,43.073559,109.638184,41.339985C109.464539,39.605038,109.248199,37.875599,108.987732,36.153049C108.730042,34.433262,108.377289,32.742405,107.929413,31.081875C107.896332,30.967495,107.855011,30.795238,107.808136,30.563732C107.759918,30.334972,107.700653,30.115864,107.631744,29.902271C107.565613,29.690052,107.47464,29.542606,107.361664,29.4613C107.092926,29.273884,106.815948,29.265621,106.529327,29.433735C106.242706,29.599102,105.957428,29.874714,105.674957,30.260563C105.391052,30.646412,105.125092,31.068089,104.875671,31.528355C104.628998,31.991375,104.415405,32.421322,104.236267,32.818203C104.059875,33.217831,103.935852,33.515484,103.866943,33.71117C103.131073,35.669361,102.497192,37.670269,101.96524,39.713902C101.436096,41.760288,100.957916,43.803921,100.532104,45.843418C99.495819,50.829159,98.68277,55.856243,98.095734,60.924664C97.507294,65.99585,97.029144,71.07254,96.662567,76.154739C96.658905,76.235649,96.646942,76.309807,96.626801,76.37709C96.922363,76.436768,97.214417,76.562042,97.463959,76.75116C97.458771,76.540848,97.438995,76.320724,97.411133,76.096161L97.374023,75.768661L98.463379,74.656174L98.61554,75.963867C98.677551,76.531616,98.736816,77.157242,98.62381,77.817322C98.609894,77.907928,98.59082,77.999596,98.566742,78.091415C99.842072,78.025452,101.061157,78.520187,102.042725,79.165047C103.158936,79.871979,104.108398,80.759438,105.044098,81.593155L110.67337,86.676727L113.487335,89.223343C113.940704,89.660187,114.442291,90.028122,114.877777,90.568314C115.087219,90.832901,115.277405,91.130554,115.368347,91.491592C115.47171,91.849884,115.373871,92.307404,115.09964,92.584381C114.487762,93.145248,113.735382,93.006058,113.133179,92.993668C112.490997,92.953705,111.857117,92.875153,111.232849,92.758011C109.976074,92.519623,108.757904,92.121368,107.608612,91.585304L107.655487,91.480576C108.818542,91.965637,110.035339,92.303268,111.276947,92.485168C111.895691,92.577499,112.521332,92.625717,113.145569,92.636749C113.756042,92.646393,114.442291,92.660172,114.775787,92.28949C115.121674,91.914658,114.863983,91.327606,114.476746,90.896286C114.097809,90.463577,113.568634,90.077728,113.104218,89.65329L110.226898,87.183853L104.476349,82.235321C103.517212,81.401604,102.595306,80.56514,101.567291,79.92572C100.8703,79.482185,100.107758,79.155472,99.340271,79.052536C99.554321,79.274231,99.730499,79.547134,99.95636,79.73555C100.220947,79.961555,100.542023,80.100739,100.881042,80.228897C101.579681,80.461777,102.170868,80.872437,102.687653,81.35199C103.164459,81.875648,103.558563,82.49025,103.719788,83.256439L103.631592,83.325348C102.910889,83.042847,102.365173,82.662506,101.847046,82.247719C101.368866,81.788834,100.909973,81.316162,100.504822,80.731873C100.29538,80.453514,100.055573,80.195816,99.751038,80.044235C99.6987,80.017227,99.643799,79.994316,99.584656,79.97847C101.767303,83.692711,104.110901,87.308388,106.562683,90.845299C107.269623,91.884338,107.991699,92.807632,108.715179,93.911438C109.045898,94.473679,109.386292,95.130997,109.317383,95.942657C109.274658,96.761215,108.582886,97.46402,107.871826,97.652802C107.167633,97.866409,106.449677,97.823685,105.811646,97.65419C105.165344,97.513626,104.568665,97.258682,103.988495,96.99411C102.840607,96.444275,101.796051,95.759384,100.726685,95.175095C99.668365,94.590805,98.546631,94.089203,97.382202,94.076797C96.205353,94.031326,95.152527,94.652817,94.039093,95.230209C93.475464,95.505829,92.859467,95.756622,92.192505,95.815887C91.531036,95.875137,90.843414,95.680832,90.294952,95.325302C89.173218,94.614227,88.533813,93.32164,88.444244,92.049698C88.336761,90.765373,88.63028,89.507217,89.049194,88.334518C89.259705,87.745667,89.504211,87.168839,89.780212,86.608009C89.591797,86.816666,89.402374,87.024719,89.211823,87.232086C88.444244,88.049255,87.722137,88.917419,86.782318,89.647781C85.8797,90.375381,84.606415,90.893524,83.348236,90.631699C82.726776,90.513191,82.102509,90.204514,81.675323,89.676727C81.242615,89.146179,81.071747,88.448891,81.111694,87.81086C81.169586,86.501724,82.010162,85.39653,82.922455,84.66893C83.852631,83.920654,84.810364,83.365311,85.741913,82.730034C87.618805,81.489799,89.545288,80.293655,91.550323,79.225677C92.423218,78.770523,93.362762,78.262482,94.463531,78.101151C94.457306,77.947983,94.472595,77.792145,94.504852,77.635422C94.593048,77.23304,94.857635,76.827896,95.229706,76.603271C95.242401,76.595139,95.255188,76.587196,95.269135,76.582993C95.191315,76.472366,95.149139,76.329254,95.141205,76.154739C94.989624,72.27005,94.804962,68.393631,94.584503,64.524101C94.36676,60.654568,94.115936,56.787792,93.829315,52.926533C93.677734,50.922863,93.51651,48.921955,93.344269,46.923794C93.170624,44.924267,92.980438,42.927486,92.770996,40.932087C92.67865,39.997776,92.580811,39.068981,92.478851,38.142941C92.375488,37.2169,92.265259,36.292233,92.148102,35.370327C92.08197,34.826,92.013062,34.284435,91.944183,33.744244C91.873871,33.204052,91.798096,32.661106,91.71817,32.11816C91.685089,31.900425,91.653412,31.685452,91.624451,31.473232C91.594147,31.25964,91.563812,31.043285,91.530762,30.822803C91.530762,29.938099,91.023651,29.384129,90.009399,29.163647C89.998383,29.406178,89.912933,29.588078,89.755829,29.709347C89.601501,29.830616,89.422363,29.891247,89.221161,29.891247C89.018585,29.891247,88.842194,29.830616,88.691986,29.709347C88.544556,29.588078,88.47702,29.406178,88.488037,29.163647C88.510101,28.590382,88.715424,28.116337,89.105408,27.741505C89.498138,27.36668,89.999756,27.201313,90.610229,27.245411C91.153168,27.293644,91.580353,27.487949,91.889038,27.8297C92.20047,28.168697,92.440277,28.576595,92.605621,29.053402C92.773743,29.531582,92.899139,29.989086,92.980438,30.425922C93.417297,32.798908,93.75354,35.195316,93.989166,37.613773C94.22757,40.034985,94.454956,42.443798,94.672699,44.840206C94.973083,48.191593,95.243195,51.54298,95.482971,54.894367C95.716217,58.120323,95.923981,61.352657,96.106293,64.590424zM95.450478,79.84375L95.445549,79.848686C95.395142,79.91275,95.344543,79.976654,95.293579,80.040314C95.361572,79.981171,95.438202,79.927765,95.528381,79.890137C95.489105,79.870827,95.450287,79.849777,95.420166,79.814911C95.419983,79.815125,95.4198,79.815338,95.44989,79.843147C95.44986,79.843201,95.449829,79.843246,95.450478,79.84375zM95.633636,78.091049C95.731384,78.105453,95.828918,78.123825,95.925598,78.146683C96.23291,78.218338,96.48233,78.301018,96.693176,78.328583C96.916412,78.352005,96.978424,78.318932,96.996338,78.294128C97.008759,78.295502,97.061127,78.1577,97.019775,78.019897C96.983948,77.77874,96.650452,77.518295,96.294922,77.492111C95.936615,77.471436,95.707886,77.618889,95.651398,77.898636C95.63559,77.957962,95.630188,78.0233,95.633636,78.091049M93.183212,79.630379L93.182411,79.639992C92.826935,79.877533,92.499634,80.159363,92.221436,80.514145C92.01059,80.755302,91.795624,80.975784,91.5159,81.09568C91.243042,81.223831,90.891632,81.227966,90.598114,81.328568C90.042755,81.582123,89.601776,82.02034,89.333069,82.685936L89.399231,82.778259C90.11441,82.761726,90.665619,82.532974,91.117645,82.133347C91.328461,81.915611,91.477295,81.59729,91.715698,81.409866C91.941711,81.214188,92.237976,81.123245,92.539764,81.055717C93.170929,80.945473,93.712494,80.709824,94.231995,80.428711C94.379791,80.327835,94.524689,80.221832,94.665009,80.106522C93.483429,81.53923,92.270874,82.946945,91.028046,84.324417C90.274261,85.156754,89.512238,85.979446,88.737762,86.788361C87.956421,87.588989,87.205383,88.437866,86.352386,89.070389C85.502136,89.718063,84.483765,90.08049,83.506744,89.861374C82.51593,89.678101,81.857208,88.838875,81.966095,87.86322C82.036346,86.884811,82.670258,86.034561,83.508118,85.391022C84.343201,84.743347,85.340912,84.176971,86.279327,83.566498C88.179657,82.381393,90.077209,81.203171,92.053314,80.183418C92.430328,79.985092,92.80777,79.792892,93.183212,79.630379zM97.870567,79.345093L97.870758,79.344879L97.870087,79.345596C98.092499,79.53875,98.24173,79.78952,98.317871,80.066284C98.366119,80.332245,98.287567,80.636795,98.338562,80.883461C98.375763,81.128754,98.516327,81.342346,98.676178,81.564209C99.019318,82.002426,99.164001,82.530212,99.191559,83.05249C99.164001,83.580276,98.997253,84.110825,98.553528,84.539398L98.439148,84.524239C98.14975,83.99231,98.038147,83.552719,97.966492,83.10762C97.951324,82.661133,97.954071,82.218781,98.067078,81.715797C98.104279,81.469131,98.105682,81.212814,97.985779,81.003349C97.874146,80.792511,97.613708,80.646439,97.45108,80.472809C97.316284,80.287354,97.220215,80.09034,97.161316,79.863007C96.7966,80.039383,96.351501,80.115082,95.92392,80.025711C96.010406,80.455963,95.974609,80.795776,95.900787,81.123245C95.760254,81.485664,95.590729,81.827423,95.279327,82.160904C95.134613,82.334534,95.025757,82.519196,95.034027,82.72728C95.036774,82.929848,95.193878,83.154465,95.246246,83.352905C95.295837,83.752533,95.170441,84.11496,94.788727,84.538017L94.674347,84.540771C94.262299,84.142517,94.164459,83.682251,94.294006,83.260574C94.387726,83.051117,94.597198,82.866455,94.670227,82.665268C94.746002,82.464066,94.714325,82.250473,94.666077,82.02034C94.545166,81.576126,94.599731,81.145691,94.735565,80.752853C93.672821,82.093506,92.581238,83.412849,91.459381,84.70752C91.282288,84.911804,91.104553,85.115768,90.926025,85.319305C90.294128,86.302521,89.767548,87.353287,89.381317,88.451645C88.980286,89.60231,88.717102,90.817734,88.828705,92.01387C88.933441,93.197617,89.523254,94.341385,90.523712,94.962875C91.012909,95.270187,91.587555,95.424515,92.158051,95.370773C92.72995,95.317032,93.285278,95.082764,93.8172,94.797516C94.356018,94.515015,94.885193,94.185669,95.475006,93.922455C96.057892,93.666138,96.72348,93.485626,97.380829,93.492508C98.712006,93.470459,99.942596,93.998245,101.050537,94.568756C102.168121,95.146164,103.215424,95.79245,104.315094,96.281662C105.392731,96.743301,106.613678,97.145691,107.594818,96.816345C108.067505,96.657867,108.373444,96.303711,108.395477,95.861359C108.421661,95.417633,108.199799,94.892593,107.899384,94.410278C107.255829,93.447037,106.4552,92.420395,105.757904,91.415802C102.94519,87.488159,100.383942,83.384598,98.01709,79.177727C97.971428,79.236176,97.92218,79.291779,97.870567,79.345093z"/>
    <path transform="matrix(1,0,0,-1,0,0)" style="stroke:none;fill:#000000;fill-rule:evenodd" d="M100.615005,15.575371C100.615005,15.170227,100.704582,14.869812,100.885101,14.671379C101.068382,14.472939,101.350883,14.373718,101.733978,14.373718C101.994423,14.373718,102.221802,14.446754,102.41748,14.594208C102.62281,14.755432,102.726166,14.960762,102.726166,15.211563C102.726166,15.423782,102.618675,15.644272,102.406456,15.873024C102.343071,15.935036,102.281059,15.995667,102.219048,16.054924C102.155655,16.112801,102.082619,16.176193,101.998558,16.24234C101.913124,16.311241,101.829063,16.382896,101.745003,16.457314C101.659561,16.534485,101.579636,16.611656,101.502464,16.68882C101.425293,16.768753,101.355019,16.851433,101.293007,16.936867C101.156578,17.127037,101.08905,17.318588,101.08905,17.510132C101.08905,17.700302,101.124886,17.868423,101.199295,18.011742C101.272331,18.157814,101.370171,18.281837,101.49144,18.381058C101.745003,18.593269,102.048172,18.70076,102.400948,18.70076C102.595253,18.70076,102.742699,18.678711,102.841919,18.634613C102.943893,18.593269,103.018311,18.564331,103.062408,18.546417C103.109261,18.527122,103.157486,18.51886,103.205719,18.51886C103.252571,18.51886,103.28978,18.524368,103.315964,18.535393C103.340767,18.546417,103.362816,18.557442,103.382111,18.568466C103.40416,18.579491,103.423447,18.590515,103.442741,18.60154C103.460655,18.612564,103.478569,18.61808,103.497864,18.61808C103.541962,18.60981,103.561256,18.587761,103.558502,18.551933C103.558502,18.51886,103.55574,18.491295,103.552986,18.469246C103.552986,18.449959,103.550232,18.41964,103.547478,18.375542C103.525429,18.183998,103.506134,18.042053,103.492355,17.951103C103.481331,17.862915,103.473061,17.796768,103.470306,17.75267C103.466171,17.711327,103.460655,17.672745,103.453766,17.636917C103.434471,17.544586,103.401405,17.499107,103.354546,17.499107C103.295296,17.499107,103.263596,17.532181,103.260841,17.598328C103.234657,18.039299,103.048622,18.32869,102.704117,18.469246C102.585602,18.516098,102.462959,18.540909,102.334801,18.540909C102.205261,18.540909,102.093643,18.520233,101.998558,18.48027C101.906227,18.438934,101.823547,18.386566,101.750511,18.320419C101.587906,18.172974,101.50798,18.003471,101.50798,17.813301C101.50798,17.537697,101.667831,17.267601,101.987534,17.003014C102.075729,16.928604,102.165298,16.851433,102.257629,16.771507C102.348579,16.690201,102.450554,16.603386,102.560799,16.512436C102.673798,16.420105,102.775772,16.320885,102.863968,16.214775C103.076187,15.972244,103.18367,15.729706,103.18367,15.487175C103.18367,15.244637,103.139572,15.043449,103.051384,14.886353C102.963188,14.73201,102.844673,14.60247,102.698601,14.500496C102.411972,14.304817,102.049545,14.208351,101.612709,14.208351C101.270958,14.208351,100.923691,14.297928,100.570915,14.478447C100.456535,14.536331,100.377983,14.584557,100.333893,14.621765C100.281525,14.665863,100.256721,14.694801,100.256721,14.709961C100.274635,14.833984,100.298058,14.955254,100.328377,15.073761C100.357315,15.190895,100.377983,15.28598,100.389008,15.360397C100.402794,15.433434,100.412437,15.48304,100.416573,15.509224C100.419327,15.534027,100.427597,15.560211,100.438622,15.586395C100.46067,15.652542,100.495117,15.685608,100.54335,15.685608C100.590202,15.685608,100.615005,15.648407,100.615005,15.575371z"/>
    <path transform="matrix(1,0,0,-1,0,0)" style="stroke:none;fill:#000000;fill-rule:evenodd" d="M93.88385,14.302063C93.88385,14.319977,93.89212,14.32962,93.911415,14.32962L93.994095,14.32962C94.184265,14.32962,94.348251,14.380608,94.484673,14.483963C94.586655,14.561134,94.65004,14.654839,94.672089,14.765083L95.410721,18.215691C95.410721,18.22258,95.410721,18.232224,95.410721,18.243248C95.410721,18.283211,95.379021,18.303886,95.317009,18.303886L94.396484,18.303886C94.242142,18.303886,94.100204,18.228088,93.972046,18.077888C93.846642,17.930435,93.769478,17.769203,93.740532,17.592819C93.732269,17.559746,93.723999,17.540451,93.712975,17.537697C93.704704,17.537697,93.699196,17.537697,93.696442,17.537697L93.624779,17.537697C93.609619,17.537697,93.60273,17.544586,93.60273,17.559746C93.70195,18.04068,93.765343,18.353493,93.795654,18.496811L93.823219,18.629105C93.834244,18.691116,93.861801,18.722809,93.905899,18.722809C93.919678,18.722809,93.933464,18.714539,93.944489,18.70076C93.955513,18.689735,93.969292,18.675957,93.988579,18.66217C94.032677,18.620834,94.094688,18.60154,94.175995,18.60154L97.455727,18.60154C97.543922,18.60154,97.600418,18.613945,97.626602,18.640121C97.651405,18.669067,97.6707,18.689735,97.681725,18.70076C97.692749,18.714539,97.706528,18.722809,97.725822,18.722809C97.780945,18.722809,97.808502,18.698006,97.808502,18.651154C97.808502,18.642883,97.800232,18.602921,97.786453,18.529884C97.745117,18.338333,97.684479,18.046188,97.604553,17.65345L97.582504,17.57077C97.582504,17.548721,97.57148,17.537697,97.549431,17.537697L97.510849,17.537697C97.48053,17.537697,97.452972,17.610733,97.428162,17.758179C97.406113,17.908386,97.385445,18.014496,97.367531,18.077888C97.315163,18.228088,97.232483,18.303886,97.119484,18.303886L96.138321,18.303886C96.108002,18.303886,96.083199,18.299751,96.06115,18.292862C96.041862,18.284592,96.028076,18.259789,96.017052,18.215691C95.924728,17.785744,95.843422,17.405403,95.774521,17.074677C95.704239,16.743942,95.643608,16.454559,95.592621,16.209267C95.540253,15.966728,95.496155,15.760025,95.460327,15.591904C95.423119,15.426544,95.391426,15.288734,95.366623,15.178497C95.344574,15.068253,95.325279,14.981438,95.311501,14.919426C95.300476,14.860168,95.292206,14.816071,95.289452,14.787132C95.278427,14.743034,95.272911,14.704445,95.272911,14.671379C95.272911,14.64106,95.29496,14.605232,95.339058,14.561134C95.383156,14.519791,95.435524,14.483963,95.498909,14.45089C95.653252,14.369583,95.804832,14.32962,95.956421,14.32962L96.050125,14.32962C96.063911,14.32962,96.072174,14.319977,96.072174,14.302063L96.072174,14.2304C96.072174,14.211113,96.063911,14.202843,96.050125,14.202843L93.905899,14.202843C93.890739,14.202843,93.88385,14.211113,93.88385,14.2304L93.88385,14.302063z"/>
    <path transform="matrix(1,0,0,-1,0,0)" style="stroke:none;fill:#000000;fill-rule:evenodd" d="M89.507622,15.470634C89.474548,15.308029,89.441475,15.156448,89.408401,15.01313C89.378082,14.872566,89.356033,14.762329,89.342255,14.682404C89.327095,14.605232,89.311935,14.529434,89.298157,14.456398C89.287132,14.381989,89.277489,14.332382,89.270599,14.307571C89.262329,14.285522,89.251305,14.263474,89.237526,14.241425C89.226501,14.219376,89.204453,14.208351,89.171379,14.208351C89.14106,14.208351,89.112122,14.219376,89.083183,14.241425C89.056999,14.266235,89.029442,14.297928,89.000504,14.335136C88.970184,14.375099,88.942627,14.415062,88.917816,14.456398C88.89164,14.500496,88.796555,14.643814,88.631187,14.886353C88.46582,15.128883,88.272896,15.411385,88.052414,15.735222C87.831924,16.061813,87.641754,16.337425,87.484657,16.562042C87.330322,16.789421,87.203537,16.972702,87.104324,17.113258C87.007858,17.256577,86.930687,17.369576,86.87281,17.455009C86.813553,17.543205,86.769455,17.606598,86.740517,17.647942C86.71434,17.692032,86.692291,17.727867,86.674377,17.758179C86.59996,17.857399,86.554482,17.907013,86.536568,17.907013C86.503494,17.907013,86.47731,17.85878,86.459396,17.763695C86.382233,17.373711,86.300926,16.989235,86.216866,16.611656C86.131424,16.236824,86.062523,15.919876,86.007401,15.663567C85.95504,15.410004,85.930237,15.225349,85.930237,15.11235C85.930237,15.002106,85.937126,14.900131,85.952278,14.809181C85.9702,14.71685,85.999138,14.635544,86.040474,14.566643C86.120399,14.408173,86.241669,14.32962,86.404282,14.32962C86.47731,14.32962,86.522789,14.325485,86.542084,14.318596C86.559998,14.310333,86.569641,14.296547,86.569641,14.274498L86.569641,14.246941C86.569641,14.216621,86.547592,14.202843,86.503494,14.202843L85.0979,14.202843C85.064827,14.202843,85.038643,14.204224,85.020729,14.208351C85.005569,14.215248,84.99868,14.233162,84.99868,14.263474C84.99868,14.296547,85.004189,14.318596,85.015213,14.32962C85.026237,14.343399,85.040024,14.354424,85.059311,14.362694C85.08136,14.369583,85.100655,14.375099,85.119949,14.379234C85.141998,14.386124,85.169556,14.395767,85.202629,14.406792C85.238457,14.42057,85.281174,14.446754,85.329407,14.483963C85.376259,14.519791,85.420357,14.562508,85.4617,14.610741C85.549896,14.712715,85.606392,14.817451,85.632576,14.924934L86.288521,18.022766C86.29541,18.047569,86.302299,18.075127,86.31057,18.105446C86.317459,18.134384,86.321594,18.167458,86.321594,18.204666C86.321594,18.244629,86.300926,18.283211,86.260963,18.320419C86.223755,18.356247,86.178284,18.386566,86.123161,18.408615C86.019806,18.452713,85.926102,18.474762,85.842041,18.474762C85.756599,18.474762,85.701477,18.476135,85.676674,18.48027C85.654625,18.48716,85.6436,18.505081,85.6436,18.535393C85.6436,18.564331,85.651871,18.582245,85.671165,18.590515C85.693207,18.597404,85.723526,18.60154,85.76487,18.60154L86.547592,18.60154C86.668861,18.60154,86.746033,18.590515,86.779106,18.568466C86.823204,18.546417,86.875565,18.488541,86.938957,18.397591L89.099724,15.217079C89.113503,15.197784,89.128662,15.175735,89.143814,15.150932C89.1576,15.128883,89.17276,15.117859,89.187912,15.117859C89.201698,15.117859,89.211342,15.131638,89.215477,15.161957C89.222366,15.190895,89.23201,15.225349,89.243034,15.266685C89.254059,15.306648,89.262329,15.352127,89.270599,15.404495C89.281624,15.455482,89.294022,15.521622,89.309181,15.602928C89.327095,15.686989,89.353279,15.806877,89.386353,15.96122C89.419426,16.115562,89.453873,16.280922,89.491081,16.457314C89.579277,16.854187,89.645424,17.157356,89.689522,17.366821C89.73362,17.579033,89.766693,17.733376,89.788742,17.829842C89.813545,17.924927,89.827324,18.008987,89.827324,18.083397C89.827324,18.22258,89.773582,18.334198,89.667473,18.41964C89.61924,18.455467,89.496597,18.474762,89.298157,18.474762C89.267838,18.474762,89.24855,18.481651,89.237526,18.496811C89.229256,18.514725,89.226501,18.531258,89.226501,18.546417C89.226501,18.582245,89.25544,18.60154,89.314697,18.60154L90.692734,18.60154C90.739586,18.60154,90.764389,18.579491,90.764389,18.535393C90.764389,18.494049,90.739586,18.474762,90.692734,18.474762L90.565956,18.474762C90.400589,18.474762,90.262787,18.403107,90.152542,18.259789C90.100174,18.193642,90.054703,18.058594,90.01474,17.857399C89.973396,17.654831,89.940323,17.494972,89.91552,17.377846C89.889336,17.259331,89.860397,17.124283,89.827324,16.96994C89.797005,16.818359,89.763931,16.658508,89.728104,16.490387C89.690903,16.32502,89.653694,16.154144,89.617859,15.977753C89.580658,15.801369,89.543449,15.631866,89.507622,15.470634z"/>
    <path transform="matrix(1,0,0,-1,0,0)" style="stroke:none;fill:#000000;fill-rule:evenodd" d="M81.936668,15.172981C81.936668,15.146797,81.910484,15.075142,81.859497,14.958008C81.807129,14.839493,81.763031,14.726494,81.727203,14.616257C81.69413,14.506012,81.663811,14.419197,81.639008,14.357185C81.616959,14.297928,81.592155,14.257965,81.567352,14.235916C81.541168,14.213867,81.498451,14.202843,81.440575,14.202843L78.039574,14.202843C78.024414,14.202843,78.017525,14.211113,78.017525,14.2304L78.034058,14.302063C78.040955,14.319977,78.064377,14.32962,78.105721,14.32962C78.149818,14.32962,78.202179,14.332382,78.265572,14.340645C78.327583,14.351669,78.382706,14.370964,78.430939,14.401283C78.530151,14.467422,78.59906,14.591446,78.640396,14.776108C78.728592,15.190895,78.805763,15.556076,78.87191,15.873024C78.940811,16.192726,79.000069,16.468338,79.048294,16.699844C79.099281,16.934113,79.142006,17.131172,79.175079,17.28965C79.210907,17.446747,79.241226,17.57766,79.263268,17.681007C79.288078,17.78299,79.307365,17.862915,79.31839,17.91803C79.329414,17.975914,79.337685,18.022766,79.345955,18.05584C79.352844,18.099937,79.356979,18.144028,79.356979,18.188126C79.356979,18.232224,79.336304,18.273567,79.296341,18.314911C79.255005,18.354874,79.204018,18.387947,79.142006,18.414124C79.031761,18.454086,78.900848,18.474762,78.750641,18.474762C78.739616,18.474762,78.734108,18.483032,78.734108,18.502319L78.745132,18.573982C78.752022,18.591896,78.763046,18.60154,78.778198,18.60154L82.041397,18.60154C82.088249,18.60154,82.125458,18.596031,82.151642,18.585007C82.18058,18.576736,82.19574,18.560196,82.19574,18.535393C82.19574,18.513344,82.19574,18.494049,82.19574,18.48027C82.19574,18.469246,82.191605,18.437553,82.184715,18.386566C82.173691,18.331444,82.137856,18.083397,82.079979,17.642426C82.075844,17.612106,82.059311,17.598328,82.030373,17.598328C81.971115,17.598328,81.938042,17.621758,81.931152,17.669983C81.922882,17.703056,81.920128,17.738892,81.920128,17.780228C81.920128,17.82019,81.915993,17.865669,81.909103,17.91803C81.900833,17.973152,81.882919,18.033791,81.853981,18.099937C81.823669,18.168839,81.78508,18.228088,81.738228,18.276321C81.634872,18.378296,81.502586,18.430664,81.341354,18.430664L80.20034,18.430664C80.081825,18.430664,80.014305,18.421021,79.996384,18.403107C79.966072,18.383812,79.942642,18.325935,79.924728,18.226715L79.594002,16.666779C79.589867,16.651619,79.588486,16.639214,79.588486,16.628189C79.588486,16.575821,79.632584,16.551018,79.720779,16.551018L80.86731,16.551018C80.999596,16.551018,81.131889,16.600632,81.264183,16.699844C81.359268,16.777016,81.440575,16.876236,81.506714,16.997505C81.5205,17.022308,81.539787,17.036087,81.561836,17.036087L81.616959,17.036087C81.634872,17.036087,81.644524,17.027817,81.644524,17.014038C81.644524,16.998878,81.641762,16.991989,81.639008,16.991989C81.639008,16.991989,81.639008,16.989235,81.639008,16.986481L81.390961,15.823418C81.379936,15.77932,81.357887,15.757271,81.324814,15.757271C81.302765,15.757271,81.287613,15.760025,81.280716,15.768295C81.272453,15.775185,81.266937,15.791718,81.264183,15.817902C81.260048,15.84684,81.255913,15.87854,81.253159,15.911613C81.253159,15.947441,81.247643,15.991539,81.236618,16.0439C81.225601,16.094887,81.204926,16.138985,81.175987,16.176193C81.145668,16.212021,81.112602,16.24234,81.076767,16.264389C81.002357,16.300217,80.900383,16.319511,80.768089,16.319511L79.643608,16.319511C79.624321,16.319511,79.59951,16.311241,79.566437,16.297462C79.536125,16.282303,79.51683,16.254738,79.505806,16.214775C79.494781,16.173439,79.485138,16.133476,79.478249,16.093513C79.469978,16.056305,79.453438,15.983269,79.428635,15.873024C79.402451,15.765541,79.373512,15.633247,79.340439,15.476151C79.310127,15.317673,79.285316,15.189514,79.263268,15.090302C79.230202,14.946983,79.213661,14.83123,79.213661,14.743034C79.213661,14.657593,79.230202,14.591446,79.263268,14.544594C79.299103,14.500496,79.347328,14.467422,79.406586,14.445381C79.494781,14.412308,79.640854,14.395767,79.847557,14.395767C80.052887,14.395767,80.223763,14.398521,80.360191,14.406792C80.495239,14.413681,80.615128,14.426086,80.718483,14.445381C80.820457,14.463295,80.908646,14.486717,80.983063,14.517036C81.060234,14.545975,81.131889,14.583183,81.198036,14.627281C81.282097,14.689293,81.374428,14.770592,81.473648,14.869812C81.575623,14.971786,81.639008,15.037933,81.661057,15.068253C81.683105,15.097191,81.705154,15.123375,81.727203,15.145424C81.782326,15.2033,81.829178,15.233612,81.870522,15.233612C81.914619,15.233612,81.936668,15.212944,81.936668,15.172981z"/>
    <path transform="matrix(1,0,0,-1,0,0)" style="stroke:none;fill:#000000;fill-rule:evenodd" d="M74.468544,17.763695L74.468544,17.802277C74.468544,17.816055,74.460274,17.824326,74.446495,17.824326C74.4272,17.824326,74.403778,17.802277,74.37484,17.758179L72.241631,14.412308C72.200294,14.346161,72.158951,14.293793,72.114853,14.257965C72.073509,14.220757,72.032173,14.202843,71.988075,14.202843C71.946732,14.202843,71.919174,14.208351,71.905396,14.219376C71.890236,14.233162,71.879211,14.248322,71.872322,14.263474C71.864052,14.285522,71.847511,14.373718,71.822708,14.528061C71.796524,14.685158,71.759323,14.908401,71.712463,15.19503C71.668373,15.484421,71.621513,15.776566,71.574661,16.071465C71.530563,16.364983,71.483711,16.661263,71.436859,16.958916C71.388626,17.256577,71.351418,17.478439,71.326614,17.625893C71.304565,17.771965,71.290787,17.857399,71.288033,17.879448C71.283897,17.901497,71.279762,17.923546,71.277008,17.945595C71.268738,18.000717,71.260468,18.028275,71.249443,18.028275C71.238419,18.028275,71.227394,18.018631,71.21637,18.000717C71.208107,17.981422,71.202591,17.959373,71.199837,17.93457C71.180542,17.879448,71.147469,17.763695,71.100616,17.587303C71.052383,17.410919,70.980728,17.143578,70.885643,16.78804C70.793312,16.431129,70.717522,16.144501,70.659645,15.928146C70.600388,15.710419,70.557671,15.560211,70.532867,15.476151C70.510818,15.390709,70.49015,15.312164,70.472229,15.239128C70.439163,15.09581,70.422623,14.975922,70.422623,14.880836C70.422623,14.656219,70.486015,14.490852,70.615547,14.384743C70.659645,14.347534,70.717522,14.32962,70.791939,14.32962C70.86911,14.32962,70.907692,14.314461,70.907692,14.285522L70.907692,14.241425C70.907692,14.215248,70.864975,14.202843,70.780914,14.202843L69.584778,14.202843C69.543434,14.202843,69.524139,14.224892,69.524139,14.26899C69.524139,14.293793,69.531029,14.310333,69.546188,14.318596C69.559975,14.325485,69.591667,14.337891,69.6399,14.357185C69.74601,14.397148,69.867271,14.490852,70.0037,14.638306C70.087761,14.733391,70.155281,14.893242,70.207649,15.117859C70.225563,15.19503,70.26828,15.354881,70.334427,15.59742C70.400574,15.842705,70.451561,16.034256,70.48877,16.170685C70.57283,16.486252,70.64035,16.738434,70.692719,16.925842C70.798828,17.340637,70.864975,17.592819,70.891159,17.681007C70.915962,17.769203,70.935257,17.836731,70.946274,17.884964C70.97522,17.997963,70.990372,18.083397,70.990372,18.138519C70.990372,18.193642,70.979347,18.243248,70.957298,18.287346C70.935257,18.331444,70.907692,18.367271,70.874619,18.397591C70.808472,18.448578,70.723038,18.474762,70.621063,18.474762L70.494278,18.474762C70.457077,18.474762,70.435028,18.48027,70.428139,18.491295C70.424004,18.505081,70.422623,18.521614,70.422623,18.540909C70.422623,18.576736,70.446053,18.598785,70.494278,18.607056L71.657349,18.607056C71.72625,18.607056,71.767586,18.554688,71.77861,18.452713C71.789635,18.378296,71.807549,18.262543,71.833733,18.105446C71.858536,17.951103,71.894371,17.737511,71.938461,17.466034C71.982559,17.193184,72.023903,16.921715,72.065247,16.650238C72.109344,16.381523,72.150681,16.115562,72.192024,15.850975C72.231987,15.586395,72.26368,15.389336,72.285728,15.261177C72.307777,15.131638,72.320183,15.062737,72.324318,15.051712C72.331207,15.040688,72.338097,15.035179,72.346367,15.035179C72.360146,15.035179,72.375305,15.043449,72.390465,15.062737C72.555824,15.323189,72.729462,15.59742,72.914116,15.884048C73.101532,16.173439,73.290321,16.468338,73.481865,16.765991C73.89666,17.416428,74.187424,17.871178,74.352791,18.133011C74.520912,18.397591,74.617371,18.540909,74.63942,18.562958C74.661469,18.587761,74.691788,18.60154,74.733124,18.60154L75.725311,18.60154C75.758385,18.60154,75.777679,18.596031,75.78595,18.585007C75.796974,18.576736,75.802483,18.562958,75.802483,18.540909C75.802483,18.492676,75.736336,18.469246,75.60405,18.469246C75.47451,18.469246,75.378052,18.432045,75.311905,18.359009C75.234734,18.277702,75.168587,18.102692,75.113464,17.83535C75.098305,17.760941,75.083145,17.692032,75.069366,17.625893C75.032158,17.460526,75.014244,17.373711,75.014244,17.366821L74.479568,14.83123C74.471298,14.798157,74.468544,14.760948,74.468544,14.720985C74.468544,14.679642,74.475433,14.635544,74.490593,14.588692C74.508507,14.540459,74.534691,14.497742,74.567764,14.461914C74.629776,14.380608,74.711075,14.33651,74.810295,14.32962L74.959122,14.32962C75.017006,14.32962,75.047318,14.310333,75.047318,14.274498C75.047318,14.237297,75.036293,14.215248,75.014244,14.208351C74.992195,14.204224,74.960503,14.202843,74.92054,14.202843L73.239334,14.202843C73.195236,14.202843,73.173187,14.216621,73.173187,14.246941L73.178696,14.280014C73.178696,14.313087,73.207642,14.32962,73.266891,14.32962C73.328903,14.32962,73.389542,14.342026,73.448792,14.36821C73.510803,14.397148,73.570061,14.43573,73.625183,14.483963C73.742317,14.590073,73.818108,14.72374,73.851181,14.886353C73.887009,15.051712,73.925598,15.230858,73.966934,15.426544C74.011032,15.624977,74.056511,15.830307,74.104744,16.0439C74.217743,16.590981,74.316956,17.06089,74.402397,17.455009L74.463028,17.725105C74.46579,17.743019,74.468544,17.755424,74.468544,17.763695z"/>
    <path transform="matrix(1,0,0,-1,0,0)" style="stroke:none;fill:#000000;fill-rule:evenodd" d="M63.244987,14.302063C63.244987,14.319977,63.253258,14.32962,63.272549,14.32962L63.355232,14.32962C63.545403,14.32962,63.709389,14.380608,63.845814,14.483963C63.947788,14.561134,64.011177,14.654839,64.033226,14.765083L64.771851,18.215691C64.771851,18.22258,64.771851,18.232224,64.771851,18.243248C64.771851,18.283211,64.740158,18.303886,64.678146,18.303886L63.757618,18.303886C63.603279,18.303886,63.461342,18.228088,63.333183,18.077888C63.207783,17.930435,63.130611,17.769203,63.101673,17.592819C63.093403,17.559746,63.085136,17.540451,63.074112,17.537697C63.065845,17.537697,63.060333,17.537697,63.057575,17.537697L62.985916,17.537697C62.97076,17.537697,62.963867,17.544586,62.963867,17.559746C63.063087,18.04068,63.126476,18.353493,63.156796,18.496811L63.184357,18.629105C63.195381,18.691116,63.222939,18.722809,63.267036,18.722809C63.280819,18.722809,63.294598,18.714539,63.305622,18.70076C63.316647,18.689735,63.330429,18.675957,63.34972,18.66217C63.393818,18.620834,63.45583,18.60154,63.537132,18.60154L66.816864,18.60154C66.90506,18.60154,66.961555,18.613945,66.98774,18.640121C67.012543,18.669067,67.031837,18.689735,67.042862,18.70076C67.053886,18.714539,67.067665,18.722809,67.08696,18.722809C67.142082,18.722809,67.16964,18.698006,67.16964,18.651154C67.16964,18.642883,67.161377,18.602921,67.147591,18.529884C67.106247,18.338333,67.045616,18.046188,66.965691,17.65345L66.943642,17.57077C66.943642,17.548721,66.932617,17.537697,66.910568,17.537697L66.871986,17.537697C66.841667,17.537697,66.81411,17.610733,66.789307,17.758179C66.767258,17.908386,66.746582,18.014496,66.728668,18.077888C66.6763,18.228088,66.59362,18.303886,66.480621,18.303886L65.499458,18.303886C65.469147,18.303886,65.444336,18.299751,65.422287,18.292862C65.403,18.284592,65.389221,18.259789,65.378189,18.215691C65.285858,17.785744,65.204559,17.405403,65.135658,17.074677C65.065376,16.743942,65.004745,16.454559,64.953751,16.209267C64.90139,15.966728,64.857292,15.760025,64.821465,15.591904C64.784256,15.426544,64.752563,15.288734,64.727753,15.178497C64.705704,15.068253,64.686417,14.981438,64.672638,14.919426C64.661613,14.860168,64.653343,14.816071,64.650589,14.787132C64.639565,14.743034,64.634048,14.704445,64.634048,14.671379C64.634048,14.64106,64.656097,14.605232,64.700195,14.561134C64.744293,14.519791,64.796661,14.483963,64.860046,14.45089C65.014389,14.369583,65.16597,14.32962,65.317558,14.32962L65.41127,14.32962C65.425049,14.32962,65.433311,14.319977,65.433311,14.302063L65.433311,14.2304C65.433311,14.211113,65.425049,14.202843,65.41127,14.202843L63.267036,14.202843C63.251881,14.202843,63.244987,14.211113,63.244987,14.2304L63.244987,14.302063z"/>
    <path transform="matrix(1,0,0,-1,0,0)" style="stroke:none;fill:#000000;fill-rule:evenodd" d="M56.935371,16.203751L56.527473,16.181702C56.497154,16.181702,56.480618,16.16655,56.477863,16.137611L56.169182,14.704445C56.160915,14.667244,56.158157,14.623146,56.158157,14.572159C56.158157,14.523926,56.176071,14.481209,56.21328,14.445381C56.249107,14.408173,56.29734,14.380608,56.356594,14.362694C56.43652,14.340645,56.563301,14.32962,56.736935,14.32962C56.750713,14.32962,56.758984,14.319977,56.758984,14.302063L56.742447,14.2304C56.734177,14.211113,56.72591,14.202843,56.714886,14.202843L55.039192,14.202843C55.024033,14.202843,55.017143,14.211113,55.017143,14.2304L55.03368,14.302063C55.040569,14.319977,55.066753,14.32962,55.110847,14.32962C55.154945,14.32962,55.205933,14.332382,55.26519,14.340645C55.327202,14.351669,55.382324,14.370964,55.430553,14.401283C55.532528,14.467422,55.60281,14.591446,55.640015,14.776108C55.646904,14.809181,55.652416,14.839493,55.656551,14.869812C55.656551,14.869812,55.663441,14.904266,55.6786,14.974541C55.689625,15.018639,55.702026,15.073761,55.717186,15.139908C55.730965,15.206055,55.750259,15.290115,55.772308,15.393471C55.794357,15.499573,55.81916,15.627731,55.849476,15.77932C55.882549,15.929527,55.921135,16.111427,55.965233,16.32502C56.012085,16.541374,56.067207,16.793556,56.130596,17.080185C56.280804,17.785744,56.356594,18.157814,56.356594,18.19915C56.356594,18.301132,56.313877,18.367271,56.229816,18.397591C56.144379,18.426529,56.014843,18.441689,55.838451,18.441689L55.673088,18.441689C55.662064,18.441689,55.656551,18.449959,55.656551,18.469246L55.673088,18.551933C55.684113,18.580872,55.697891,18.596031,55.717186,18.596031L57.266102,18.596031C57.813183,18.596031,58.214191,18.513344,58.467751,18.347984C58.739223,18.167458,58.875648,17.882202,58.875648,17.493599C58.875648,17.25795,58.773674,17.048492,58.572479,16.865211C58.420895,16.724655,58.139778,16.546883,57.729122,16.330536C57.669865,16.300217,57.640926,16.271278,57.640926,16.24234C57.640926,16.212021,57.651951,16.177574,57.674,16.137611C57.698803,16.100403,57.731876,16.046654,57.77322,15.977753C57.817314,15.907478,57.868301,15.828926,57.927559,15.74073C57.985435,15.652542,58.050205,15.556076,58.120483,15.454102C58.19352,15.354881,58.270691,15.255661,58.351994,15.156448C58.431919,15.057228,58.514603,14.960762,58.60004,14.869812C58.684101,14.777481,58.768162,14.696182,58.8536,14.627281C59.04377,14.472939,59.209133,14.395767,59.349693,14.395767L59.432377,14.395767C59.512302,14.395767,59.559155,14.386124,59.570179,14.36821C59.583961,14.348915,59.592228,14.331001,59.592228,14.313087L59.592228,14.263474C59.592228,14.222137,59.559155,14.202843,59.493011,14.202843L59.261497,14.202843C58.702015,14.202843,58.215569,14.475693,57.800781,15.024155C57.679512,15.189514,57.57616,15.335587,57.4921,15.465126C57.410793,15.59742,57.343269,15.702148,57.288151,15.77932C57.235783,15.856491,57.190308,15.925392,57.150345,15.988777C57.113136,16.054924,57.08971,16.094887,57.078686,16.110046C57.070419,16.12796,57.062149,16.14312,57.051125,16.154144C57.020809,16.187218,56.982224,16.203751,56.935371,16.203751zM57.381855,18.452713L57.227516,18.452713C57.106247,18.452713,57.026321,18.433418,56.990494,18.397591C56.95742,18.364517,56.938126,18.32869,56.935371,18.292862L56.555035,16.501411C56.54401,16.468338,56.538498,16.43251,56.538498,16.396683C56.538498,16.359474,56.590862,16.34156,56.698349,16.34156C56.808594,16.34156,56.927105,16.353958,57.056641,16.380142C57.188931,16.409081,57.312954,16.449043,57.431465,16.501411C57.552734,16.552399,57.664352,16.61441,57.767708,16.68882C57.873814,16.761856,57.963387,16.844543,58.037804,16.936867C58.203167,17.135307,58.285851,17.347527,58.285851,17.576279C58.285851,17.847755,58.203167,18.062729,58.037804,18.221199C57.879326,18.375542,57.660217,18.452713,57.381855,18.452713z"/>
    <path transform="matrix(1,0,0,-1,0,0)" style="stroke:none;fill:#000000;fill-rule:evenodd" d="M47.352333,14.241425C47.352333,14.299309,47.374382,14.32962,47.41848,14.32962L47.484627,14.32962C47.564552,14.32962,47.625187,14.343399,47.666527,14.373718C47.70649,14.402657,47.778149,14.485344,47.8815,14.621765C47.98761,14.756813,48.132305,14.944229,48.316959,15.184006C48.504375,15.426544,48.691788,15.670456,48.8792,15.917122C49.066612,16.162415,49.254028,16.407707,49.441441,16.650238C49.628853,16.892776,49.806618,17.125664,49.97612,17.350281C50.148373,17.573524,50.309605,17.78299,50.461189,17.978668C50.611393,18.177101,50.721638,18.320419,50.791916,18.408615C50.860821,18.499565,50.910427,18.558823,50.940746,18.585007C50.97382,18.60981,51.013783,18.623589,51.062012,18.623589L51.144695,18.623589C51.202572,18.623589,51.23978,18.607056,51.254936,18.573982C51.272854,18.540909,51.283878,18.499565,51.28801,18.452713L51.376205,14.671379C51.383095,14.494987,51.491959,14.386124,51.701424,14.346161C51.756542,14.335136,51.80891,14.32962,51.861275,14.32962L51.999077,14.32962C52.023884,14.32962,52.037663,14.313087,52.037663,14.280014L52.037663,14.246941C52.037663,14.216621,52.022507,14.202843,51.993565,14.202843L50.0588,14.202843C50.028484,14.202843,50.014702,14.213867,50.014702,14.235916L50.014702,14.296547C50.014702,14.318596,50.039509,14.32962,50.091873,14.32962C50.14286,14.32962,50.196606,14.331001,50.251724,14.335136C50.309605,14.337891,50.359215,14.343399,50.400555,14.351669C50.550762,14.376472,50.648602,14.419197,50.692699,14.478447C50.739552,14.540459,50.771248,14.596962,50.786404,14.64933C50.811211,14.729256,50.824989,14.843628,50.824989,14.991081L50.80294,15.889565L50.80294,15.944679C50.80294,16.035637,50.747818,16.082489,50.637577,16.082489L49.386318,16.082489C49.30088,16.082489,49.233356,16.04528,49.182369,15.972244C49.074883,15.828926,48.967396,15.686989,48.857151,15.547806C48.749664,15.411385,48.661469,15.297005,48.592567,15.206055C48.526421,15.117859,48.479568,15.054474,48.454765,15.018639C48.428581,14.981438,48.402401,14.942848,48.377594,14.902885C48.32523,14.81469,48.300423,14.72374,48.300423,14.63279C48.300423,14.544594,48.339008,14.470184,48.41618,14.412308C48.496105,14.357185,48.599457,14.32962,48.724861,14.32962L48.8792,14.32962C48.904003,14.32962,48.917786,14.315842,48.917786,14.291039C48.909515,14.23867,48.901249,14.211113,48.890224,14.208351C48.8792,14.204224,48.862663,14.202843,48.840614,14.202843L47.407455,14.202843C47.371628,14.202843,47.352333,14.215248,47.352333,14.241425zM50.791916,16.468338L50.758842,17.868423C50.758842,17.923546,50.747818,17.951103,50.725773,17.951103C50.703724,17.951103,50.672028,17.923546,50.632065,17.868423C50.590725,17.813301,50.528713,17.730621,50.444653,17.620377C50.363346,17.510132,50.273773,17.391624,50.174557,17.267601C49.954071,16.983727,49.795597,16.779778,49.700512,16.655754C49.608181,16.53035,49.557194,16.460068,49.546169,16.446289C49.535145,16.435265,49.52412,16.421486,49.5131,16.407707C49.486916,16.370499,49.474514,16.344315,49.474514,16.330536C49.474514,16.319511,49.480026,16.313995,49.491051,16.313995L50.643089,16.313995C50.687187,16.313995,50.721638,16.326401,50.747818,16.352585C50.77676,16.381523,50.791916,16.420105,50.791916,16.468338z"/>
    <path transform="matrix(1,0,0,-1,0,0)" style="stroke:none;fill:#000000;fill-rule:evenodd" d="M42.708557,15.977753C42.708557,16.0439,42.743008,16.076973,42.813286,16.076973C43.276306,16.076973,43.64011,16.195488,43.904694,16.435265C44.176167,16.68882,44.312592,17.044357,44.312592,17.504623C44.312592,18.135765,43.944656,18.452713,43.210163,18.452713C43.088894,18.452713,43.008968,18.433418,42.973141,18.397591C42.940067,18.364517,42.920776,18.32869,42.918018,18.292862L42.151829,14.704445C42.143562,14.667244,42.140804,14.624519,42.140804,14.577667C42.140804,14.529434,42.158718,14.486717,42.195927,14.45089C42.235889,14.413681,42.2855,14.384743,42.344753,14.362694C42.417789,14.340645,42.54319,14.32962,42.719582,14.32962C42.73336,14.32962,42.741631,14.319977,42.741631,14.302063L42.725094,14.2304C42.716824,14.211113,42.708557,14.202843,42.697533,14.202843L41.021839,14.202843C41.00668,14.202843,40.99979,14.211113,40.99979,14.2304L41.016327,14.302063C41.023216,14.319977,41.0494,14.32962,41.093494,14.32962C41.137592,14.32962,41.18858,14.332382,41.247837,14.340645C41.309849,14.351669,41.364967,14.370964,41.4132,14.401283C41.515175,14.467422,41.585457,14.591446,41.622662,14.776108C41.629551,14.809181,41.635063,14.83812,41.639198,14.864304C41.646088,14.893242,41.652981,14.927689,41.661247,14.969032C41.672272,15.01313,41.683296,15.065491,41.694321,15.128883C41.708099,15.19503,41.727394,15.279091,41.749443,15.382446C41.771492,15.484421,41.796295,15.609818,41.826611,15.757271C41.859684,15.907478,41.89827,16.089378,41.942368,16.302971C41.98922,16.51519,42.044342,16.765991,42.107731,17.052628C42.257938,17.765068,42.333729,18.14679,42.333729,18.19915C42.333729,18.254272,42.31995,18.29837,42.295143,18.331444C42.268963,18.367271,42.234512,18.393456,42.190414,18.408615C42.131157,18.430664,42.019539,18.441689,41.854172,18.441689L41.655735,18.441689C41.640575,18.441689,41.633686,18.449959,41.633686,18.469246L41.661247,18.568466C41.661247,18.590515,41.669518,18.60154,41.688808,18.60154L42.64241,18.596031C42.891834,18.596031,43.105431,18.596031,43.281822,18.596031C43.460964,18.596031,43.608414,18.58638,43.722794,18.568466C43.835793,18.549171,43.948792,18.520233,44.059032,18.48027C44.172031,18.443069,44.279518,18.393456,44.378738,18.331444C44.477959,18.272186,44.563396,18.201912,44.63781,18.121986C44.803173,17.945595,44.885857,17.7444,44.885857,17.521156C44.885857,17.300674,44.858295,17.114639,44.803173,16.964432C44.748055,16.812843,44.670883,16.679176,44.571663,16.562042C44.475201,16.44767,44.362202,16.349823,44.229912,16.269897C44.100376,16.188599,43.959816,16.121071,43.805473,16.065948C43.514709,15.96949,43.183979,15.922638,42.813286,15.922638C42.743008,15.922638,42.708557,15.940552,42.708557,15.977753z"/>
    <path transform="matrix(1,0,0,-1,0,0)" style="stroke:none;fill:#000000;fill-rule:evenodd" d="M33.334984,14.241425C33.334984,14.299309,33.357033,14.32962,33.401131,14.32962L33.467278,14.32962C33.547203,14.32962,33.607834,14.343399,33.649178,14.373718C33.68914,14.402657,33.760799,14.485344,33.864151,14.621765C33.970261,14.756813,34.114952,14.944229,34.299614,15.184006C34.487022,15.426544,34.674438,15.670456,34.861851,15.917122C35.049263,16.162415,35.236679,16.407707,35.424091,16.650238C35.611504,16.892776,35.789268,17.125664,35.958771,17.350281C36.131023,17.573524,36.292255,17.78299,36.44384,17.978668C36.594044,18.177101,36.704288,18.320419,36.774567,18.408615C36.843472,18.499565,36.893078,18.558823,36.923397,18.585007C36.95647,18.60981,36.996433,18.623589,37.044662,18.623589L37.127346,18.623589C37.185223,18.623589,37.222431,18.607056,37.237587,18.573982C37.255505,18.540909,37.266529,18.499565,37.27066,18.452713L37.358856,14.671379C37.365746,14.494987,37.474609,14.386124,37.684074,14.346161C37.739193,14.335136,37.791561,14.32962,37.843925,14.32962L37.981728,14.32962C38.006535,14.32962,38.020313,14.313087,38.020313,14.280014L38.020313,14.246941C38.020313,14.216621,38.005157,14.202843,37.976215,14.202843L36.041451,14.202843C36.011135,14.202843,35.997353,14.213867,35.997353,14.235916L35.997353,14.296547C35.997353,14.318596,36.02216,14.32962,36.074524,14.32962C36.125511,14.32962,36.179256,14.331001,36.234375,14.335136C36.292255,14.337891,36.341866,14.343399,36.383205,14.351669C36.533413,14.376472,36.631252,14.419197,36.67535,14.478447C36.722202,14.540459,36.753899,14.596962,36.769054,14.64933C36.793861,14.729256,36.80764,14.843628,36.80764,14.991081L36.785591,15.889565L36.785591,15.944679C36.785591,16.035637,36.730469,16.082489,36.620228,16.082489L35.368969,16.082489C35.283531,16.082489,35.216007,16.04528,35.16502,15.972244C35.057533,15.828926,34.950043,15.686989,34.839802,15.547806C34.732315,15.411385,34.644119,15.297005,34.575218,15.206055C34.509071,15.117859,34.462219,15.054474,34.437416,15.018639C34.411232,14.981438,34.385048,14.942848,34.360245,14.902885C34.30788,14.81469,34.283073,14.72374,34.283073,14.63279C34.283073,14.544594,34.321659,14.470184,34.39883,14.412308C34.478756,14.357185,34.582108,14.32962,34.707512,14.32962L34.861851,14.32962C34.886658,14.32962,34.900436,14.315842,34.900436,14.291039C34.892166,14.23867,34.8839,14.211113,34.872875,14.208351C34.861851,14.204224,34.845314,14.202843,34.823265,14.202843L33.390106,14.202843C33.354279,14.202843,33.334984,14.215248,33.334984,14.241425zM36.774567,16.468338L36.741493,17.868423C36.741493,17.923546,36.730469,17.951103,36.708424,17.951103C36.686375,17.951103,36.654678,17.923546,36.614716,17.868423C36.573376,17.813301,36.511364,17.730621,36.427303,17.620377C36.345997,17.510132,36.256424,17.391624,36.157207,17.267601C35.936722,16.983727,35.778248,16.779778,35.683163,16.655754C35.590832,16.53035,35.539845,16.460068,35.52882,16.446289C35.517796,16.435265,35.506771,16.421486,35.49575,16.407707C35.469566,16.370499,35.457165,16.344315,35.457165,16.330536C35.457165,16.319511,35.462677,16.313995,35.473701,16.313995L36.62574,16.313995C36.669838,16.313995,36.704288,16.326401,36.730469,16.352585C36.759411,16.381523,36.774567,16.420105,36.774567,16.468338z"/>
    <path transform="matrix(1,0,0,-1,0,0)" style="stroke:none;fill:#000000;fill-rule:evenodd" d="M87.676041,49.712952C87.733917,49.955482,87.84967,50.112579,88.023308,50.186996C88.195557,50.264168,88.378838,50.275192,88.574524,50.22007C88.772957,50.167702,88.930054,50.065727,89.048569,49.911392C89.16983,49.75705,89.202904,49.558609,89.147781,49.316078C89.044434,48.866837,88.868042,48.336288,88.618622,47.723068C88.371948,47.112595,88.068779,46.488342,87.709114,45.84893C87.352203,45.209518,86.951195,44.615585,86.507462,44.068504C86.06649,43.524185,85.586937,43.081833,85.068794,42.740082C84.550652,42.401077,84.013214,42.232956,83.459244,42.232956C82.859795,42.232956,82.376106,42.416237,82.009552,42.784172C81.641609,43.150734,81.359116,43.635803,81.160675,44.23938C80.964996,44.845718,80.824432,45.509933,80.736237,46.234787C80.650803,46.962387,80.584656,47.67897,80.537804,48.384521C80.298027,47.62384,80.044464,46.868683,79.777122,46.119026C79.512543,45.369377,79.212128,44.637634,78.878647,43.925194C78.731194,43.590324,78.547913,43.23204,78.327431,42.850319C78.106941,42.471359,77.858894,42.103424,77.58329,41.747894C77.307678,41.390976,76.999001,41.086433,76.657249,40.83287C76.318253,40.579315,75.947556,40.411194,75.543793,40.331268C74.944344,40.212753,74.453766,40.276146,74.072052,40.518677C73.693085,40.761215,73.405075,41.122261,73.206642,41.604576C73.005447,42.089645,72.869019,42.636726,72.798744,43.247192C72.729843,43.86042,72.707794,44.477783,72.732597,45.099281C72.754646,45.719398,72.795982,46.295418,72.853867,46.824585C72.908981,47.356506,72.958595,47.778183,73.002693,48.086868C73.110176,48.755219,73.254875,49.525536,73.438148,50.396454C73.621429,51.26738,73.854317,52.165863,74.138191,53.091904C74.420692,54.017944,74.766579,54.906776,75.174477,55.759781C75.582375,56.611412,76.059181,57.361061,76.607635,58.008739C77.154716,58.655037,77.792755,59.122192,78.520355,59.408829C79.314102,59.720261,80.058243,59.801567,80.752777,59.65136C81.450066,59.499779,82.049515,59.182831,82.549736,58.697762C83.052719,58.215446,83.422035,57.625645,83.657684,56.92836C83.89608,56.229691,83.956718,55.50071,83.839584,54.740036C83.806511,54.500256,83.704536,54.340401,83.536415,54.260475C83.371048,54.179173,83.191902,54.166771,83.001732,54.221893C82.810188,54.27977,82.648956,54.387257,82.516663,54.541595C82.384377,54.698692,82.336143,54.899887,82.373352,55.142418C82.475327,55.821793,82.422958,56.377144,82.213501,56.807091C82.00679,57.239792,81.707756,57.553986,81.315018,57.749668C80.925034,57.94397,80.493706,58.022522,80.019661,57.986691C79.54837,57.953621,79.090866,57.813057,78.647133,57.567768C78.202026,57.321098,77.831337,56.966942,77.533676,56.503922C77.176765,55.952705,76.858444,55.358772,76.580078,54.723495C76.304474,54.090977,76.050911,53.469482,75.819397,52.86039C74.944344,50.530128,74.420692,48.139229,74.248436,45.689079C74.237411,45.501663,74.218124,45.239838,74.193314,44.906357C74.171265,44.575623,74.163002,44.228363,74.171265,43.864555C74.178154,43.500755,74.215363,43.171402,74.281509,42.877884C74.35041,42.582977,74.47168,42.384544,74.645309,42.28257C74.967773,42.086891,75.268188,42.030388,75.543793,42.111694C75.822159,42.19162,76.08123,42.356979,76.321007,42.607788C76.563538,42.861343,76.775757,43.150734,76.960419,43.478706C77.147827,43.809433,77.309059,44.126381,77.445488,44.432312C77.584671,44.736855,77.6894,44.983521,77.759682,45.170937C78.229591,46.309196,78.654022,47.47226,79.03299,48.660126C79.414703,49.846619,79.801933,51.027603,80.196053,52.204445C80.275978,52.442841,80.419289,52.602699,80.625999,52.683998C80.831322,52.763931,81.035278,52.763931,81.237846,52.683998C81.439041,52.602699,81.580978,52.442841,81.662285,52.204445C81.753235,51.913681,81.819382,51.523697,81.860718,51.035866C81.900681,50.546661,81.935135,50.002335,81.965454,49.404266C81.994392,48.804825,82.028839,48.202621,82.070183,47.596283C82.110146,46.989944,82.176292,46.41806,82.268616,45.882004C82.359573,45.348701,82.489105,44.900841,82.654472,44.537041C82.822586,44.173241,83.051346,43.938972,83.337975,43.836998C83.616341,43.733643,83.908485,43.773605,84.214409,43.958267C84.518951,44.141541,84.826256,44.421288,85.134941,44.796112C85.446373,45.170937,85.744034,45.592621,86.027908,46.063904C86.310402,46.537949,86.565338,47.013374,86.794098,47.491554C87.025604,47.968353,87.218529,48.40657,87.372871,48.803444C87.529968,49.203079,87.631943,49.506241,87.676041,49.712952z"/>
    <path transform="matrix(1,0,0,-1,0,0)" style="stroke:none;fill:#000000;fill-rule:evenodd" d="M69.606796,59.838776C69.477257,59.632069,69.314651,59.516312,69.116211,59.491508C68.920532,59.46946,68.737251,59.509422,68.564995,59.612778C68.391365,59.718887,68.270096,59.860825,68.201195,60.037212C68.135048,60.216354,68.169495,60.409283,68.305923,60.61599C69.216812,62.045013,69.981621,63.567745,70.598984,65.185562C71.216339,66.806137,71.621483,68.473557,71.817169,70.190598C72.011467,71.910385,71.924652,73.615021,71.55809,75.305878C71.304535,76.492363,70.86908,77.48317,70.251717,78.276924C69.634354,79.073425,68.892967,79.68528,68.030319,80.112473C67.16629,80.538284,66.238869,80.786331,65.246681,80.856613C64.257248,80.925514,63.252659,80.819405,62.231533,80.536911C61.213161,80.253029,60.243023,79.806549,59.321117,79.197449C57.960991,78.285187,56.808952,77.204811,55.864998,75.956306C54.919662,74.706429,54.175522,73.346298,53.632576,71.877319C53.092384,70.406952,52.745117,68.881462,52.590778,67.302231C52.43644,65.725754,52.461243,64.15065,52.66795,62.578316C52.873276,61.004593,53.259125,59.492889,53.8255,58.041813C54.343643,56.70787,54.977539,55.474525,55.727192,54.343159C56.476845,53.214546,57.299534,52.160347,58.196636,51.179184C59.096497,50.200775,60.034939,49.260956,61.013348,48.356964C61.994511,47.452972,62.982563,46.548973,63.978886,45.644981C64.973831,44.74099,65.94397,43.806679,66.889297,42.84481C67.83326,41.881561,68.709686,40.846657,69.5186,39.74147C70.186951,38.829208,70.681664,37.856308,71.001366,36.820023C71.32383,35.783745,71.456116,34.758484,71.398239,33.744247C71.343124,32.730011,71.089561,31.7957,70.637566,30.944069C70.188324,30.092445,69.532379,29.381378,68.669724,28.810867C67.805695,28.241737,66.723938,27.893097,65.423065,27.763557C64.70649,27.697411,63.973373,27.736,63.223721,27.879318C62.476822,28.022629,61.801582,28.300995,61.195248,28.711647C60.591667,29.119553,60.134159,29.685921,59.822723,30.409393C59.547115,31.055695,59.442383,31.684082,59.50853,32.294548C59.577431,32.903641,59.795162,33.458992,60.158962,33.959221C60.522766,34.462204,60.992676,34.881126,61.570076,35.215988C61.775402,35.340012,61.969704,35.364815,62.154362,35.287651C62.337643,35.213234,62.47958,35.090591,62.578796,34.918335C62.678017,34.744705,62.712467,34.562798,62.683529,34.372627C62.653214,34.185219,62.536079,34.026741,62.33075,33.898582C61.823631,33.611954,61.470856,33.260551,61.272419,32.845764C61.076736,32.429596,61.020237,32.005157,61.10154,31.572456C61.181469,31.142509,61.379906,30.745636,61.696854,30.381836C62.012424,30.022163,62.424458,29.742424,62.931576,29.543983C63.474522,29.338661,64.040894,29.239441,64.629318,29.24633C65.216362,29.250465,65.792381,29.327637,66.354622,29.477837C67.137344,29.684547,67.798805,30.016655,68.338997,30.47554C68.881943,30.93856,69.298111,31.485641,69.584747,32.118164C69.87413,32.753433,70.032608,33.432808,70.058792,34.157654C70.08773,34.885262,69.977486,35.618378,69.728058,36.357002C69.437294,37.18383,69.034904,37.967934,68.520897,38.710693C68.009644,39.456215,67.429489,40.168655,66.77906,40.849411C66.128624,41.528786,65.445114,42.180595,64.728539,42.806221C64.014709,43.434608,63.303646,44.042328,62.595337,44.630745C61.885643,45.217789,61.225563,45.795189,60.61647,46.361565C59.002789,47.856735,57.5214,49.451126,56.173676,51.146111C54.828712,52.839722,53.709743,54.657349,52.816776,56.59763C51.923809,58.540665,51.336761,60.629768,51.058399,62.864944C50.873741,64.419373,50.870987,65.979309,51.047375,67.544762C51.226521,69.112976,51.587566,70.638458,52.127758,72.11985C52.670704,73.599861,53.390041,74.98204,54.283009,76.264984C55.17598,77.550697,56.239822,78.695847,57.474545,79.699059C58.301369,80.378433,59.227409,80.942047,60.25267,81.391289C61.277931,81.839157,62.337643,82.1437,63.433182,82.306305C64.527344,82.467537,65.602219,82.462021,66.657791,82.289772C67.71199,82.116135,68.687637,81.738556,69.584747,81.154266C70.484604,80.572739,71.245277,79.765205,71.866776,78.72892C72.54615,77.600311,73.009171,76.387634,73.255836,75.090897C73.505264,73.796921,73.581055,72.472626,73.481834,71.116638C73.385376,69.763405,73.156616,68.418442,72.792816,67.081741C72.429016,65.743668,71.96875,64.457962,71.41478,63.223236C70.863564,61.991272,70.259979,60.864037,69.606796,59.838776z"/>
    <path transform="matrix(1,0,0,-1,0,0)" style="stroke:none;fill:#000000;fill-rule:evenodd" d="M20.013508,44.978012C20.483419,47.130508,20.934038,49.288513,21.363987,51.44928C21.79669,53.610043,22.226639,55.76667,22.65383,57.920547C23.564713,62.451534,24.478352,66.982529,25.39337,71.513512C26.308388,76.047256,27.220648,80.578247,28.132908,85.106476C28.179764,85.315941,28.281738,85.462013,28.436077,85.547455C28.590418,85.635651,28.758537,85.66597,28.943195,85.641159C29.130608,85.61911,29.290462,85.54332,29.422752,85.415161C29.555044,85.289764,29.621189,85.12439,29.621189,84.919067C29.561935,81.471222,29.52335,78.019226,29.505436,74.561737C29.490276,71.106995,29.555044,67.660522,29.69836,64.220932C29.841677,60.781353,30.114529,57.350037,30.519672,53.929749C31.948696,58.628857,33.405281,63.319698,34.890808,68.002274C36.374954,72.687607,37.896309,77.363281,39.454868,82.030701C39.523773,82.225006,39.638149,82.364182,39.796623,82.449623C39.957855,82.537819,40.128731,82.572266,40.309254,82.554352C40.4884,82.5392,40.641361,82.471672,40.766762,82.350403C40.89492,82.229141,40.95142,82.05275,40.937637,81.821243C40.812237,79.49511,40.630337,77.166229,40.391937,74.837341C40.156292,72.511215,39.906868,70.186462,39.642284,67.864471C39.377701,65.545227,39.129654,63.220478,38.898144,60.891594C38.669388,58.565468,38.502647,56.233826,38.396538,53.896675C38.293182,51.500267,38.282158,49.091454,38.363464,46.670242C38.44339,44.251785,38.685925,41.855377,39.091068,39.482399C39.274345,38.435089,39.487942,37.383644,39.730476,36.329445C39.973011,35.273865,40.266533,34.240341,40.612423,33.226105C40.806725,32.63768,41.02721,32.049255,41.27388,31.462212C41.523304,30.873795,41.860924,30.344627,42.288116,29.874718C42.482418,29.654228,42.769051,29.453033,43.14801,29.268379C43.529728,29.085098,43.943142,28.951431,44.388245,28.86599C44.831974,28.777794,45.248142,28.772285,45.633991,28.849457C46.019844,28.923866,46.318878,29.111282,46.532475,29.411697C46.74469,29.709351,46.798435,30.157211,46.692326,30.75666C46.659252,30.999191,46.704727,31.197632,46.830128,31.351974C46.958286,31.50631,47.119518,31.612419,47.315197,31.671677C47.513638,31.729553,47.695538,31.718529,47.860901,31.638603C48.026264,31.557297,48.126862,31.396065,48.16407,31.153534C48.277069,30.436951,48.21368,29.814079,47.971146,29.284912C47.731365,28.755745,47.375832,28.328552,46.901787,28.00058C46.427742,27.669853,45.894444,27.452126,45.303265,27.344635C44.710709,27.23439,44.11264,27.24955,43.506302,27.388733C42.899963,27.525162,42.350128,27.795258,41.85817,28.19902C41.14159,28.787445,40.53801,29.499886,40.050182,30.337738C39.560978,31.178337,39.151703,32.097488,38.820972,33.093811C38.493,34.092888,38.228416,35.11264,38.027222,36.153053C37.82465,37.196228,37.663422,38.220116,37.542152,39.223328C37.420887,40.22654,37.307888,41.148445,37.205914,41.990425C36.882072,44.80162,36.734623,47.608688,36.764938,50.412994C36.793877,53.220062,36.931683,56.025742,37.178352,58.830051C37.427776,61.63298,37.715786,64.437286,38.043758,67.241592C38.374489,70.04866,38.677658,72.852966,38.953262,75.653137C37.555935,71.422562,36.193054,67.186478,34.863247,62.942116C33.532063,58.697762,32.228439,54.438244,30.949619,50.164948C30.894497,49.944458,30.75256,49.787369,30.525185,49.696411C30.300564,49.604088,30.084211,49.594437,29.874748,49.668854C29.668043,49.746025,29.54402,49.911392,29.499924,50.164948C28.841221,54.588448,28.420919,59.024353,28.23764,63.471283C28.052982,67.916832,27.973057,72.363762,27.995106,76.810692C27.153124,72.617325,26.308388,68.417061,25.459515,64.209915C24.6134,60.005516,23.764528,55.801125,22.912901,51.598106C22.383734,48.948135,21.833897,46.300926,21.264767,43.655098C20.69426,41.012016,20.010752,38.399261,19.214247,35.816818C19.159126,35.632156,19.076443,35.333122,18.9662,34.918335C18.855957,34.502167,18.715397,34.041901,18.547276,33.534782C18.381912,33.030418,18.18623,32.542595,17.962988,32.06855C17.738369,31.594505,17.486187,31.194878,17.207823,30.872414C16.932217,30.552711,16.626291,30.36805,16.292805,30.321198C15.962077,30.2771,15.599652,30.438332,15.206912,30.806267C15.033279,30.967499,14.954731,31.142509,14.96989,31.329926C14.987803,31.520088,15.069108,31.68821,15.212424,31.831528C15.358496,31.9776,15.529373,32.063042,15.725054,32.085091C15.919357,32.10714,16.102636,32.038231,16.27627,31.881134C16.232172,31.925232,16.245953,32.093353,16.320366,32.388252C16.397537,32.681778,16.509157,33.052467,16.656609,33.501709C16.806814,33.953705,16.973557,34.434639,17.158215,34.945892C17.341492,35.4599,17.523394,35.96151,17.703917,36.450714C17.88306,36.938538,18.040157,37.36573,18.172451,37.72953C18.304741,38.09333,18.387424,38.348267,18.420498,38.49572C18.720909,39.567833,19.00065,40.645462,19.258343,41.725845C19.518793,42.808983,19.770973,43.893494,20.013508,44.978012z"/>
</svg>
