<?xml version="1.0" encoding="UTF-8" standalone="no"?>
<svg xmlns="http://www.w3.org/2000/svg" xmlns:xlink="http://www.w3.org/1999/xlink" width="110.060mm" height="95.258mm" viewBox="14.969890 -103.594315 110.060219 95.258316">
    <path transform="matrix(1,0,0,-1,0,0)" style="stroke:none;fill:#000000;fill-rule:evenodd" d="M51.069695,8.844814L50.621941,8.844814L50.621941,8.396572L51.069695,8.396572L51.069695,8.844814z"/>
    <path transform="matrix(1,0,0,-1,0,0)" style="stroke:none;fill:#000000;fill-rule:evenodd" d="M51.069695,10.717861L50.621941,10.717861L50.621941,10.269619L51.069695,10.269619L51.069695,10.717861z"/>
    <path transform="matrix(1,0,0,-1,0,0)" style="stroke:none;fill:#000000;fill-rule:evenodd" d="M77.307487,8.631435L77.339714,8.856045C77.510994,9.744002,77.913658,10.570727,78.507195,11.253017L78.507195,11.55917L76.433464,11.55917L76.433464,11.180752L78.002312,11.180752L77.854851,11.000576C77.281868,10.246865,76.943283,9.341311,76.881218,8.396572L77.285515,8.396572L77.307487,8.631435z"/>
    <path transform="matrix(1,0,0,-1,0,0)" style="stroke:none;fill:#000000;fill-rule:evenodd" d="M97.259636,8.77499L95.681511,8.77499L95.681511,11.600674L95.257683,11.600674L95.257683,8.396572L97.259636,8.396572L97.259636,8.77499z"/>
    <path transform="matrix(1,0,0,-1,0,0)" style="stroke:none;fill:#000000;fill-rule:evenodd" d="M91.955925,11.124111L92.882683,8.396572L93.265007,8.396572L94.196159,11.078213L94.196159,8.396572L94.604851,8.396572L94.604851,11.600674L94.03405,11.600674C93.709564,10.690262,93.397247,9.776588,93.09655,8.857998L93.034538,9.055264C92.756142,9.905621,92.473305,10.753445,92.185417,11.600674L91.547234,11.600674L91.547234,8.396572L91.955925,8.396572L91.955925,11.124111z"/>
    <path transform="matrix(1,0,0,-1,0,0)" style="stroke:none;fill:#000000;fill-rule:evenodd" d="M90.803093,11.600674L90.379265,11.600674L90.379265,8.396572L90.803093,8.396572L90.803093,11.600674z"/>
    <path transform="matrix(1,0,0,-1,0,0)" style="stroke:none;fill:#000000;fill-rule:evenodd" d="M52.311882,11.600674L51.888054,11.600674L51.888054,8.396572L52.311882,8.396572L52.311882,11.600674z"/>
    <path transform="matrix(1,0,0,-1,0,0)" style="stroke:none;fill:#000000;fill-rule:evenodd" d="M89.785027,8.77499L88.20739,8.77499L88.20739,11.600674L87.783073,11.600674L87.783073,8.396572L89.785027,8.396572L89.785027,8.77499z"/>
    <path transform="matrix(1,0,0,-1,0,0)" style="stroke:none;fill:#000000;fill-rule:evenodd" d="M87.278679,8.77499L85.701042,8.77499L85.701042,11.600674L85.276726,11.600674L85.276726,8.396572L87.278679,8.396572L87.278679,8.77499z"/>
    <path transform="matrix(1,0,0,-1,0,0)" style="stroke:none;fill:#000000;fill-rule:evenodd" d="M54.308464,11.222256L55.368034,11.222256L55.368034,11.600674L52.828972,11.600674L52.828972,11.222256L53.884148,11.222256L53.884148,8.396572L54.308464,8.396572L54.308464,11.222256z"/>
    <path transform="matrix(1,0,0,-1,0,0)" style="stroke:none;fill:#000000;fill-rule:evenodd" d="M84.695183,8.77499L82.728386,8.77499L82.728386,9.865322L84.500847,9.865322L84.500847,10.241299L82.728386,10.241299L82.728386,11.222256L84.620964,11.222256L84.620964,11.600674L82.304558,11.600674L82.304558,8.396572L84.695183,8.396572L84.695183,8.77499z"/>
    <path transform="matrix(1,0,0,-1,0,0)" style="stroke:none;fill:#000000;fill-rule:evenodd" d="M46.583366,11.600674L46.15905,11.600674L46.15905,8.396572L46.583366,8.396572L46.583366,11.600674z"/>
    <path transform="matrix(1,0,0,-1,0,0)" style="stroke:none;fill:#000000;fill-rule:evenodd" d="M79.475456,10.91415L81.158073,8.396572L81.593132,8.396572L81.593132,11.600674L81.186394,11.600674L81.186394,9.085049L79.503777,11.600674L79.068718,11.600674L79.068718,8.396572L79.475456,8.396572L79.475456,10.91415z"/>
    <path transform="matrix(1,0,0,-1,0,0)" style="stroke:none;fill:#000000;fill-rule:evenodd" d="M47.742546,10.91415L49.425163,8.396572L49.860222,8.396572L49.860222,11.600674L49.453484,11.600674L49.453484,9.085049L47.770866,11.600674L47.335808,11.600674L47.335808,8.396572L47.742546,8.396572L47.742546,10.91415z"/>
    <path transform="matrix(1,0,0,-1,0,0)" style="stroke:none;fill:#000000;fill-rule:evenodd" d="M75.968132,8.77499L74.396843,8.77499L74.471062,8.881435C74.698692,9.1289,74.947327,9.356135,75.214226,9.560635L75.381218,9.711514C75.651611,9.91851,75.849014,10.206825,75.944206,10.533779C76.044205,10.967435,75.799622,11.406589,75.378288,11.549892C74.992714,11.685978,74.564941,11.620998,74.237175,11.376553C74.046669,11.196588,73.934441,10.948985,73.924675,10.687099L74.328972,10.645596L74.340691,10.788174C74.383224,11.090342,74.651947,11.308561,74.956413,11.288174C75.111206,11.29925,75.263779,11.246066,75.377953,11.140955C75.492119,11.035844,75.557709,10.888176,75.559441,10.732998C75.537552,10.500646,75.43232,10.284293,75.263054,10.123623C74.980659,9.841061,74.683517,9.573582,74.372917,9.322353L74.254265,9.205166C74.062241,9.023888,73.925468,8.791984,73.859734,8.536221L73.850456,8.396572L75.968132,8.396572L75.968132,8.77499z"/>
    <path transform="matrix(1,0,0,-1,0,0)" style="stroke:none;fill:#000000;fill-rule:evenodd" d="M66.878288,8.354092C67.030251,8.372934,67.17382,8.434389,67.292351,8.531338C67.552345,8.775621,67.707741,9.111084,67.725945,9.467373C67.80703,9.979044,67.762787,10.502914,67.597038,10.99374C67.447197,11.431207,66.99659,11.691262,66.542839,11.602139C66.171799,11.534833,65.874588,11.256901,65.782585,10.891201C65.59903,10.238601,65.620323,9.545942,65.84362,8.905849C66.012108,8.498352,66.44603,8.266954,66.878288,8.354092zM66.579948,8.681728C66.313431,8.785069,66.132126,9.034513,66.116081,9.319912C66.029373,9.839362,66.05249,10.370983,66.183952,10.880947C66.247963,11.117658,66.460754,11.283669,66.705925,11.288174C66.996567,11.265326,67.23304,11.046411,67.278191,10.758389C67.390686,10.207246,67.379852,9.638346,67.246452,9.091885C67.170052,8.798935,66.8759,8.617918,66.579948,8.681728z"/>
    <path transform="matrix(1,0,0,-1,0,0)" style="stroke:none;fill:#000000;fill-rule:evenodd" d="M61.896843,8.357998L62.100456,8.412685C62.594116,8.591282,62.863186,9.124276,62.713737,9.627529C62.635559,9.886621,62.419956,10.080963,62.154167,10.131924L62.256706,10.186611C62.568111,10.373897,62.686317,10.767422,62.529655,11.095303C62.334347,11.484118,61.900826,11.691741,61.475456,11.600185C61.061523,11.53359,60.742279,11.199781,60.694206,10.783291L61.087761,10.713467L61.116081,10.848721C61.147095,10.993449,61.233345,11.120697,61.357193,11.201737C61.481041,11.282778,61.632175,11.310863,61.777214,11.281338C62.019447,11.245312,62.196999,11.03447,62.191277,10.789639C62.196564,10.542843,62.020035,10.328883,61.776726,10.287197C61.678932,10.25745,61.576096,10.247814,61.47448,10.258877L61.430534,9.913662L61.582878,9.946377C61.745453,9.983324,61.916195,9.953237,62.055954,9.862334C62.195709,9.771431,62.292439,9.627549,62.324577,9.463955C62.360695,9.291289,62.326855,9.111259,62.230106,8.963754C62.133358,8.816249,61.981712,8.713484,61.808952,8.677822C61.652111,8.643508,61.487717,8.671891,61.352512,8.758453C61.217308,8.845016,61.122726,8.982443,61.088249,9.139248L61.04821,9.29501L60.654655,9.242275C60.681351,8.862115,60.929329,8.533197,61.287468,8.40292C61.483852,8.338173,61.693089,8.32275,61.896843,8.357998z"/>
    <path transform="matrix(1,0,0,-1,0,0)" style="stroke:none;fill:#000000;fill-rule:evenodd" d="M69.407097,8.350674C69.826714,8.408262,70.161751,8.729303,70.237175,9.146084C70.360054,9.577625,70.205444,10.040862,69.848015,10.312099C69.458054,10.582209,68.926949,10.512071,68.620476,10.14999L68.545769,10.048916C68.516785,10.389388,68.600357,10.730203,68.783562,11.018642C68.934708,11.255983,69.233643,11.352413,69.494987,11.248135C69.677315,11.161698,69.801308,10.985994,69.821648,10.785244L70.213249,10.816006C70.189606,11.154495,69.967522,11.446955,69.64782,11.560635C69.236237,11.703048,68.779602,11.578422,68.497429,11.24667C68.27253,10.914354,68.154671,10.521438,68.159538,10.120205C68.116158,9.710447,68.17437,9.296093,68.328972,8.91415C68.526016,8.51043,68.963142,8.281971,69.407097,8.350674zM69.17614,8.671474C68.891052,8.72176,68.670044,8.949465,68.628288,9.235928C68.524269,9.569796,68.68232,9.930092,68.998405,10.079678C69.280495,10.203736,69.611099,10.097381,69.767937,9.832119C69.959564,9.482728,69.888092,9.048447,69.594597,8.778896C69.475708,8.687305,69.324448,8.648476,69.17614,8.671474z"/>
    <path transform="matrix(1,0,0,-1,0,0)" style="stroke:none;fill:#000000;fill-rule:evenodd" d="M59.359245,8.354092L59.512566,8.389248C59.812561,8.503428,60.038754,8.755829,60.119499,9.066494C60.296509,9.699093,60.281902,10.369452,60.077507,10.99374C59.927883,11.431377,59.477093,11.691536,59.023308,11.602139C58.652359,11.534684,58.355198,11.256799,58.263054,10.891201C58.079922,10.238516,58.101383,9.545941,58.324577,8.905849C58.492897,8.498212,58.926964,8.266738,59.359245,8.354092zM59.060905,8.681728C58.794228,8.784933,58.612698,9.034416,58.59655,9.319912C58.509819,9.839377,58.5331,10.371049,58.664909,10.880947C58.728851,11.117504,58.941391,11.283478,59.186394,11.288174C59.477097,11.265194,59.713612,11.046422,59.759148,10.758389C59.871559,10.207244,59.860725,9.638352,59.727409,9.091885C59.650928,8.799006,59.356827,8.618018,59.060905,8.681728z"/>
    <path transform="matrix(1,0,0,-1,0,0)" style="stroke:none;fill:#000000;fill-rule:evenodd" d="M64.640984,11.613857L64.387077,11.613857L64.327019,11.508877C64.104019,11.204387,63.805489,10.963408,63.460808,10.809658L63.460808,10.429287C63.74873,10.54014,64.014938,10.700591,64.247429,10.903408L64.247429,8.396572L64.640984,8.396572L64.640984,11.613857z"/>
    <path transform="matrix(1,0,0,-1,0,0)" style="stroke:none;fill:#000000;fill-rule:evenodd" d="M56.852898,8.354092L57.006218,8.389248C57.306213,8.503428,57.532406,8.755828,57.613152,9.066494C57.790062,9.699101,57.775459,10.369441,57.571159,10.99374C57.421535,11.431376,56.970749,11.691536,56.51696,11.602139C56.145981,11.534735,55.848804,11.256833,55.756706,10.891201C55.573528,10.23852,55.594994,9.545936,55.81823,8.905849C55.986549,8.498213,56.420616,8.266737,56.852898,8.354092zM56.554558,8.681728C56.287796,8.784841,56.106239,9.034365,56.090202,9.319912C56.003471,9.839377,56.026752,10.371049,56.158562,10.880947C56.22245,11.117547,56.435017,11.28354,56.680046,11.288174C56.970749,11.265194,57.207264,11.046422,57.2528,10.758389C57.365173,10.20724,57.35434,9.638356,57.221062,9.091885C57.144581,8.799006,56.850479,8.618021,56.554558,8.681728z"/>
    <path transform="matrix(1,0,0,-1,0,0)" style="stroke:none;fill:#000000;fill-rule:evenodd" d="M44.48864,8.359463L44.709831,8.410732C45.156967,8.565493,45.487083,8.948174,45.574577,9.413174L45.150749,9.520107L45.097038,9.330166C44.934341,8.848318,44.414528,8.586566,43.930534,8.742764C43.58226,8.834518,43.316612,9.117042,43.246452,9.470303C43.103966,9.95281,43.165741,10.472619,43.417351,10.908291C43.718437,11.279495,44.231194,11.400367,44.666374,11.202724C44.884735,11.077262,45.042183,10.868155,45.102409,10.623623L45.51989,10.722256C45.417183,11.136748,45.105026,11.467433,44.697136,11.593838C44.089474,11.783702,43.427734,11.575006,43.038933,11.070889C42.565556,10.312142,42.65274,9.333604,43.2528,8.670498C43.530945,8.438824,43.886528,8.321573,44.247917,8.342373L44.48864,8.359463z"/>
    <path transform="matrix(1,0,0,-1,0,0)" style="stroke:none;fill:#000000;fill-rule:evenodd" d="M72.461784,8.359463C73.011086,8.443776,73.446907,8.866661,73.547722,9.413174L73.123894,9.520107L73.070183,9.330166C72.907478,8.848318,72.387672,8.586565,71.903679,8.742764C71.555435,8.834569,71.28981,9.117074,71.219597,9.470303C71.077209,9.952812,71.138985,10.472594,71.390495,10.908291C71.691582,11.279495,72.204338,11.400368,72.639519,11.202724C72.858139,11.077567,73.015694,10.868317,73.075554,10.623623L73.493034,10.722256C73.390419,11.136809,73.078239,11.467523,72.67028,11.593838C72.062767,11.783809,71.401093,11.575074,71.012566,11.070889C70.538757,10.312325,70.625763,9.333591,71.225945,8.670498C71.504158,8.438946,71.859688,8.321714,72.221062,8.342373L72.461784,8.359463z"/>
    <path transform="matrix(1,0,0,-1,0,0)" style="stroke:none;fill:#000000;fill-rule:evenodd" d="M115.180237,64.169701C115.378677,64.260651,115.574356,64.288208,115.764526,64.25238C115.951942,64.219307,116.104904,64.104935,116.222038,63.910629C116.312988,63.74802,116.339165,63.555092,116.299202,63.331852C116.259239,63.107231,116.139351,62.954269,115.940918,62.874344C115.838943,62.826111,115.735588,62.777882,115.632233,62.731026C115.530258,62.686928,115.42691,62.642834,115.323555,62.598736C115.136139,62.517433,114.945969,62.494003,114.75029,62.527077C114.555984,62.56015,114.400269,62.670395,114.281761,62.857807C114.190804,63.014904,114.168762,63.206451,114.215614,63.431068C114.259712,63.658447,114.375465,63.81279,114.562874,63.894089C114.666229,63.949211,114.769585,63.996067,114.871559,64.037407C114.974915,64.07737,115.078262,64.121468,115.180237,64.169701z"/>
    <path transform="matrix(1,0,0,-1,0,0)" style="stroke:none;fill:#000000;fill-rule:evenodd" d="M123.613831,55.38884C123.730965,55.609329,123.881172,55.731972,124.065826,55.758156C124.249107,55.787094,124.429626,55.749886,124.606018,55.647911C124.785164,55.544563,124.911942,55.401245,124.986359,55.217964C125.06353,55.033302,125.044235,54.837624,124.931236,54.628166C124.677673,54.145851,124.385529,53.597389,124.054802,52.980034C123.72683,52.362671,123.365784,51.730148,122.96891,51.083847C122.572037,50.440308,122.139328,49.829834,121.673553,49.253815C121.206398,48.676414,120.706169,48.189972,120.174248,47.793098C119.645081,47.396217,119.080086,47.139908,118.482018,47.026909C117.790245,46.886345,117.222488,47.00486,116.778763,47.379684C116.337791,47.754509,116.031868,48.257492,115.858231,48.890015C115.659798,49.650688,115.588135,50.447197,115.643257,51.282288C115.695625,52.120132,115.761772,52.913887,115.841698,53.663536C115.89682,54.111397,115.957451,54.559258,116.023598,55.008507C116.08699,55.456367,116.139351,55.906982,116.183449,56.358978C116.209633,56.586357,116.23719,56.812355,116.266136,57.036972C116.290939,57.264351,116.310226,57.486214,116.321251,57.703941C116.63269,58.960716,116.166916,59.040642,114.921165,57.94648C114.819191,57.728752,114.675873,57.601967,114.491219,57.566139C114.307938,57.533066,114.130173,57.563385,113.956543,57.659843C113.784286,57.759064,113.661644,57.903763,113.587227,58.095306C113.510056,58.285477,113.523834,58.489426,113.625809,58.707161C113.766373,59.007568,113.966187,59.321762,114.226639,59.649734C114.484329,59.97633,114.777855,60.261581,115.108582,60.50412C115.436554,60.746651,115.781059,60.884457,116.144867,60.91753C116.504532,60.953358,116.857307,60.815552,117.203201,60.50412C117.536682,60.217484,117.761307,59.837147,117.875679,59.363102C117.992813,58.891815,118.038292,58.377808,118.013481,57.819702C117.99144,57.260216,117.928047,56.695221,117.826073,56.121956C117.722717,55.551445,117.61937,55.014015,117.517387,54.506897C117.41404,53.999779,117.343758,53.56707,117.30793,53.21154C117.285881,52.957985,117.254189,52.623116,117.214226,52.208328C117.172882,51.79216,117.153587,51.360832,117.153587,50.912971C117.153587,50.46373,117.19355,50.053078,117.274857,49.678253C117.354782,49.303421,117.507744,49.019547,117.732368,48.829376C117.955605,48.641968,118.269798,48.610268,118.674942,48.735672C118.972603,48.826622,119.26474,49.016792,119.551376,49.303421C119.840767,49.592812,120.109482,49.907005,120.356148,50.246002C120.605576,50.587753,120.810905,50.87439,120.973511,51.105896C121.480629,51.785271,121.949158,52.485313,122.379112,53.206032C122.811813,53.925362,123.223846,54.652969,123.613831,55.38884z"/>
    <path transform="matrix(1,0,0,-1,0,0)" style="stroke:none;fill:#000000;fill-rule:evenodd" d="M40.966885,64.169701C41.165325,64.260651,41.361004,64.288208,41.551174,64.25238C41.738586,64.219307,41.891548,64.104935,42.008682,63.910629C42.099632,63.74802,42.125816,63.555092,42.085854,63.331852C42.045891,63.107231,41.926003,62.954269,41.727562,62.874344C41.625587,62.826111,41.522236,62.777882,41.418884,62.731026C41.31691,62.686928,41.213554,62.642834,41.110203,62.598736C40.922791,62.517433,40.73262,62.494003,40.536938,62.527077C40.342636,62.56015,40.186916,62.670395,40.068405,62.857807C39.977455,63.014904,39.955406,63.206451,40.002258,63.431068C40.046356,63.658447,40.162113,63.81279,40.349525,63.894089C40.452877,63.949211,40.556232,63.996067,40.658207,64.037407C40.761559,64.07737,40.86491,64.121468,40.966885,64.169701z"/>
    <path transform="matrix(1,0,0,-1,0,0)" style="stroke:none;fill:#000000;fill-rule:evenodd" d="M49.400478,55.38884C49.517612,55.609329,49.66782,55.731972,49.852474,55.758156C50.035755,55.787094,50.216278,55.749886,50.392666,55.647911C50.571812,55.544563,50.698593,55.401245,50.773006,55.217964C50.850174,55.033302,50.830883,54.837624,50.717884,54.628166C50.464325,54.145851,50.17218,53.597389,49.841454,52.980034C49.513477,52.362671,49.152431,51.730148,48.755558,51.083847C48.358681,50.440308,47.92598,49.829834,47.460201,49.253815C46.993046,48.676414,46.492821,48.189972,45.960896,47.793098C45.431728,47.396217,44.866734,47.139908,44.268665,47.026909C43.576889,46.886345,43.00914,47.00486,42.565411,47.379684C42.124439,47.754509,41.818512,48.257492,41.644882,48.890015C41.446442,49.650688,41.374786,50.447197,41.429909,51.282288C41.482273,52.120132,41.54842,52.913887,41.628345,53.663536C41.683468,54.111397,41.744099,54.559258,41.810246,55.008507C41.873634,55.456367,41.926003,55.906982,41.970097,56.358978C41.996281,56.586357,42.023842,56.812355,42.05278,57.036972C42.077583,57.264351,42.096878,57.486214,42.107903,57.703941C42.419338,58.960716,41.95356,59.040642,40.707813,57.94648C40.605839,57.728752,40.462524,57.601967,40.277866,57.566139C40.094589,57.533066,39.916821,57.563385,39.743187,57.659843C39.570934,57.759064,39.448288,57.903763,39.373875,58.095306C39.296703,58.285477,39.310486,58.489426,39.41246,58.707161C39.55302,59.007568,39.752834,59.321762,40.013283,59.649734C40.270977,59.97633,40.564499,60.261581,40.895229,60.50412C41.223202,60.746651,41.567711,60.884457,41.931515,60.91753C42.29118,60.953358,42.643959,60.815552,42.989845,60.50412C43.32333,60.217484,43.547951,59.837147,43.662331,59.363102C43.779461,58.891815,43.824936,58.377808,43.800133,57.819702C43.778084,57.260216,43.714695,56.695221,43.61272,56.121956C43.509365,55.551445,43.406013,55.014015,43.304039,54.506897C43.200687,53.999779,43.130405,53.56707,43.094578,53.21154C43.072529,52.957985,43.040833,52.623116,43.00087,52.208328C42.95953,51.79216,42.940235,51.360832,42.940235,50.912971C42.940235,50.46373,42.980198,50.053078,43.061504,49.678253C43.14143,49.303421,43.294392,49.019547,43.519012,48.829376C43.742256,48.641968,44.056446,48.610268,44.46159,48.735672C44.759247,48.826622,45.051392,49.016792,45.338024,49.303421C45.627411,49.592812,45.89613,49.907005,46.142799,50.246002C46.392223,50.587753,46.597549,50.87439,46.760159,51.105896C47.267277,51.785271,47.735809,52.485313,48.165756,53.206032C48.598461,53.925362,49.010494,54.652969,49.400478,55.38884z"/>
    <path transform="matrix(1,0,0,-1,0,0)" style="stroke:none;fill:#000000;fill-rule:evenodd" d="M96.106293,70.387573C96.113525,70.516357,96.120728,70.644806,96.127899,70.773254C96.425537,67.891769,96.77832,65.013046,97.186218,62.135708C97.596893,59.26112,98.073669,56.397552,98.613861,53.542259C99.061737,51.211998,99.568848,48.885872,100.135223,46.563873C100.700226,44.244637,101.386475,41.961227,102.191254,39.712273C102.293243,39.425636,102.440674,39.045303,102.632233,38.571259C102.822418,38.099968,103.052521,37.596985,103.321259,37.060928C103.592712,36.523491,103.895905,36.005348,104.230743,35.5065C104.56424,35.007652,104.930817,34.579079,105.327667,34.222168C105.724548,33.862503,106.14621,33.625481,106.595459,33.511101C107.047455,33.398102,107.521515,33.460114,108.017609,33.698517C108.256012,33.828049,108.458588,34.023727,108.623932,34.288315C108.792053,34.552895,108.93399,34.856064,109.04837,35.197823C109.165497,35.536819,109.259216,35.867546,109.329498,36.19001C109.398407,36.512466,109.461792,36.788078,109.516907,37.01683C109.795258,38.181274,110.024017,39.351227,110.200409,40.528069C110.379547,41.703537,110.544922,42.877625,110.696503,44.050339C111.188477,47.669067,111.633575,51.287788,112.030457,54.903763C112.430084,58.522491,112.884827,62.135708,113.391937,65.740654C113.634491,67.456314,113.882538,69.216064,114.136078,71.021301C114.389648,72.82515,114.694183,74.63176,115.051117,76.439743C115.406647,78.247726,115.858643,80.013,116.407104,81.736923C116.954193,83.459473,117.641815,85.099335,118.468658,86.653763C118.585785,86.870117,118.606445,87.069931,118.529266,87.254585C118.454865,87.442001,118.332214,87.582558,118.159973,87.679016C117.986328,87.778244,117.804413,87.812691,117.614258,87.783752C117.426849,87.753433,117.273895,87.630791,117.156769,87.414436C116.325775,85.871033,115.647797,84.247711,115.122772,82.547211C114.600494,80.849464,114.169159,79.121407,113.827423,77.365784C113.488434,75.608788,113.171478,73.871078,112.87381,72.151291C112.307434,68.857773,111.816864,65.553238,111.402069,62.234924C110.985901,58.916611,110.583527,55.598297,110.194916,52.279984C109.99646,50.584991,109.810425,48.870712,109.638184,47.137138C109.464539,45.402191,109.248199,43.672752,108.987732,41.950203C108.730042,40.230415,108.377289,38.539558,107.929413,36.879028C107.896332,36.764648,107.855011,36.592392,107.808136,36.360886C107.759918,36.132126,107.700653,35.913017,107.631744,35.699425C107.565613,35.487206,107.47464,35.33976,107.361664,35.258453C107.092926,35.071037,106.815948,35.062775,106.529327,35.230888C106.242706,35.396255,105.957428,35.671867,105.674957,36.057716C105.391052,36.443565,105.125092,36.865242,104.875671,37.325508C104.628998,37.788528,104.415405,38.218475,104.236267,38.615356C104.059875,39.014984,103.935852,39.312637,103.866943,39.508324C103.131073,41.466515,102.497192,43.467422,101.96524,45.511055C101.436096,47.557442,100.957916,49.601074,100.532104,51.640572C99.495819,56.626312,98.68277,61.653397,98.095734,66.721817C97.507294,71.792999,97.029144,76.86969,96.662567,81.951897C96.658905,82.032806,96.646942,82.106964,96.626801,82.174248C96.922363,82.233917,97.214417,82.3592,97.463959,82.548309C97.458771,82.337997,97.438995,82.117882,97.411133,81.893311L97.374023,81.565811L98.463379,80.453323L98.61554,81.761017C98.677551,82.328766,98.736816,82.954399,98.62381,83.614479C98.609894,83.705086,98.59082,83.796753,98.566742,83.888573C99.842072,83.822601,101.061157,84.317337,102.042725,84.962204C103.158936,85.669136,104.108398,86.556595,105.044098,87.390305L110.67337,92.473885L113.487335,95.0205C113.940704,95.457336,114.442291,95.825272,114.877777,96.365463C115.087219,96.630051,115.277405,96.927704,115.368347,97.28875C115.47171,97.647041,115.373871,98.104553,115.09964,98.381538C114.487762,98.942398,113.735382,98.803215,113.133179,98.790817C112.490997,98.750854,111.857117,98.672302,111.232849,98.555168C109.976074,98.316772,108.757904,97.918518,107.608612,97.382462L107.655487,97.277725C108.818542,97.762794,110.035339,98.100418,111.276947,98.282318C111.895691,98.374649,112.521332,98.422874,113.145569,98.433899C113.756042,98.44355,114.442291,98.457329,114.775787,98.086639C115.121674,97.711807,114.863983,97.124763,114.476746,96.693436C114.097809,96.260735,113.568634,95.874886,113.104218,95.450447L110.226898,92.981003L104.476349,88.032471C103.517212,87.198761,102.595306,86.362289,101.567291,85.722878C100.8703,85.279343,100.107758,84.952621,99.340271,84.849686C99.554321,85.071381,99.730499,85.344284,99.95636,85.532707C100.220947,85.758713,100.542023,85.897888,100.881042,86.026047C101.579681,86.258934,102.170868,86.669586,102.687653,87.149147C103.164459,87.672806,103.558563,88.287407,103.719788,89.053596L103.631592,89.122498C102.910889,88.839996,102.365173,88.459663,101.847046,88.044876C101.368866,87.585983,100.909973,87.113319,100.504822,86.52903C100.29538,86.250671,100.055573,85.992973,99.751038,85.841385C99.6987,85.814377,99.643799,85.791473,99.584656,85.775627C101.767303,89.489868,104.110901,93.105545,106.562683,96.642456C107.269623,97.681488,107.991699,98.604782,108.715179,99.708588C109.045898,100.270828,109.386292,100.928146,109.317383,101.739815C109.274658,102.558365,108.582886,103.261169,107.871826,103.449959C107.167633,103.663559,106.449677,103.620834,105.811646,103.45134C105.165344,103.310776,104.568665,103.05584,103.988495,102.79126C102.840607,102.241425,101.796051,101.556534,100.726685,100.972244C99.668365,100.387962,98.546631,99.886353,97.382202,99.873947C96.205353,99.828476,95.152527,100.449974,94.039093,101.027367C93.475464,101.302979,92.859467,101.55378,92.192505,101.613037C91.531036,101.672287,90.843414,101.477989,90.294952,101.122452C89.173218,100.411385,88.533813,99.11879,88.444244,97.846855C88.336761,96.562531,88.63028,95.304375,89.049194,94.131668C89.259705,93.542816,89.504211,92.965988,89.780212,92.405167C89.591797,92.613815,89.402374,92.821869,89.211823,93.029236C88.444244,93.846413,87.722137,94.714577,86.782318,95.444939C85.8797,96.172539,84.606415,96.690681,83.348236,96.428856C82.726776,96.310349,82.102509,96.001663,81.675323,95.473877C81.242615,94.943329,81.071747,94.246048,81.111694,93.608017C81.169586,92.298874,82.010162,91.193687,82.922455,90.46608C83.852631,89.717812,84.810364,89.16246,85.741913,88.527191C87.618805,87.286957,89.545288,86.090813,91.550323,85.022835C92.423218,84.567673,93.362762,84.059631,94.463531,83.8983C94.457306,83.745132,94.472595,83.589294,94.504852,83.432579C94.593048,83.030197,94.857635,82.625046,95.229706,82.400429C95.242401,82.392288,95.255188,82.384354,95.269135,82.38015C95.191315,82.269516,95.149139,82.126404,95.141205,81.951897C94.989624,78.067207,94.804962,74.190781,94.584503,70.321259C94.36676,66.451721,94.115936,62.584946,93.829315,58.723686C93.677734,56.720016,93.51651,54.719109,93.344269,52.720947C93.170624,50.72142,92.980438,48.72464,92.770996,46.72924C92.67865,45.79493,92.580811,44.866135,92.478851,43.940094C92.375488,43.014053,92.265259,42.089386,92.148102,41.16748C92.08197,40.623154,92.013062,40.081589,91.944183,39.541397C91.873871,39.001205,91.798096,38.45826,91.71817,37.915314C91.685089,37.697578,91.653412,37.482605,91.624451,37.270386C91.594147,37.056793,91.563812,36.840439,91.530762,36.619957C91.530762,35.735252,91.023651,35.181282,90.009399,34.9608C89.998383,35.203331,89.912933,35.385231,89.755829,35.5065C89.601501,35.627769,89.422363,35.6884,89.221161,35.6884C89.018585,35.6884,88.842194,35.627769,88.691986,35.5065C88.544556,35.385231,88.47702,35.203331,88.488037,34.9608C88.510101,34.387535,88.715424,33.91349,89.105408,33.538658C89.498138,33.163834,89.999756,32.998466,90.610229,33.042564C91.153168,33.090797,91.580353,33.285103,91.889038,33.626854C92.20047,33.965851,92.440277,34.373749,92.605621,34.850555C92.773743,35.328735,92.899139,35.78624,92.980438,36.223076C93.417297,38.596062,93.75354,40.99247,93.989166,43.410927C94.22757,45.832138,94.454956,48.240952,94.672699,50.63736C94.973083,53.988747,95.243195,57.340134,95.482971,60.691521C95.716217,63.91748,95.923981,67.149811,96.106293,70.387573zM95.450478,85.640907L95.445549,85.645844C95.395142,85.709908,95.344543,85.773811,95.293579,85.837471C95.361572,85.778328,95.438202,85.724922,95.528381,85.687294C95.489105,85.667984,95.450287,85.646935,95.420166,85.612068C95.419983,85.612282,95.4198,85.612495,95.44989,85.640305C95.44986,85.640358,95.449829,85.640404,95.450478,85.640907zM95.633636,83.888206C95.731384,83.902603,95.828918,83.920982,95.925598,83.943832C96.23291,84.015488,96.48233,84.098175,96.693176,84.125732C96.916412,84.149155,96.978424,84.116089,96.996338,84.091278C97.008759,84.092659,97.061127,83.954857,97.019775,83.817047C96.983948,83.575897,96.650452,83.315445,96.294922,83.289261C95.936615,83.268593,95.707886,83.416046,95.651398,83.695786C95.63559,83.755112,95.630188,83.820457,95.633636,83.888206M93.183212,85.427536L93.182411,85.437149C92.826935,85.67469,92.499634,85.95652,92.221436,86.311302C92.01059,86.55246,91.795624,86.772942,91.5159,86.892838C91.243042,87.020988,90.891632,87.025124,90.598114,87.125725C90.042755,87.37928,89.601776,87.817497,89.333069,88.483093L89.399231,88.575417C90.11441,88.558884,90.665619,88.330132,91.117645,87.930504C91.328461,87.712769,91.477295,87.394447,91.715698,87.207024C91.941711,87.011345,92.237976,86.920403,92.539764,86.852875C93.170929,86.74263,93.712494,86.506981,94.231995,86.225868C94.379791,86.124992,94.524689,86.01899,94.665009,85.903679C93.483429,87.336388,92.270874,88.744102,91.028046,90.121574C90.274261,90.953911,89.512238,91.776604,88.737762,92.585518C87.956421,93.386147,87.205383,94.235023,86.352386,94.867546C85.502136,95.515221,84.483765,95.877647,83.506744,95.658531C82.51593,95.475258,81.857208,94.636032,81.966095,93.660378C82.036346,92.681969,82.670258,91.831718,83.508118,91.188179C84.343201,90.540504,85.340912,89.974129,86.279327,89.363655C88.179657,88.178551,90.077209,87.000328,92.053314,85.980576C92.430328,85.782249,92.80777,85.59005,93.183212,85.427536zM97.870567,85.14225L97.870758,85.142036L97.870087,85.142754C98.092499,85.335907,98.24173,85.586678,98.317871,85.863441C98.366119,86.129402,98.287567,86.433952,98.338562,86.680618C98.375763,86.925911,98.516327,87.139503,98.676178,87.361366C99.019318,87.799583,99.164001,88.32737,99.191559,88.849648C99.164001,89.377434,98.997253,89.907982,98.553528,90.336555L98.439148,90.321396C98.14975,89.789467,98.038147,89.349876,97.966492,88.904778C97.951324,88.45829,97.954071,88.015938,98.067078,87.512955C98.104279,87.266289,98.105682,87.009972,97.985779,86.800507C97.874146,86.589668,97.613708,86.443596,97.45108,86.269966C97.316284,86.084511,97.220215,85.887497,97.161316,85.660164C96.7966,85.83654,96.351501,85.912239,95.92392,85.822868C96.010406,86.25312,95.974609,86.592934,95.900787,86.920403C95.760254,87.282822,95.590729,87.62458,95.279327,87.958061C95.134613,88.131691,95.025757,88.316353,95.034027,88.524437C95.036774,88.727005,95.193878,88.951622,95.246246,89.150063C95.295837,89.54969,95.170441,89.912117,94.788727,90.335175L94.674347,90.337929C94.262299,89.939674,94.164459,89.479408,94.294006,89.057732C94.387726,88.848274,94.597198,88.663612,94.670227,88.462425C94.746002,88.261223,94.714325,88.04763,94.666077,87.817497C94.545166,87.373283,94.599731,86.942848,94.735565,86.550011C93.672821,87.890663,92.581238,89.210007,91.459381,90.504677C91.282288,90.708961,91.104553,90.912926,90.926025,91.116463C90.294128,92.099678,89.767548,93.150444,89.381317,94.248802C88.980286,95.399467,88.717102,96.614891,88.828705,97.811028C88.933441,98.994774,89.523254,100.138542,90.523712,100.760033C91.012909,101.067345,91.587555,101.221672,92.158051,101.167931C92.72995,101.114189,93.285278,100.879921,93.8172,100.594673C94.356018,100.312172,94.885193,99.982826,95.475006,99.719612C96.057892,99.463295,96.72348,99.282784,97.380829,99.289665C98.712006,99.267616,99.942596,99.795403,101.050537,100.365913C102.168121,100.943321,103.215424,101.589607,104.315094,102.078819C105.392731,102.540459,106.613678,102.942848,107.594818,102.613503C108.067505,102.455025,108.373444,102.100868,108.395477,101.658516C108.421661,101.21479,108.199799,100.689751,107.899384,100.207436C107.255829,99.244194,106.4552,98.217552,105.757904,97.212959C102.94519,93.285316,100.383942,89.181755,98.01709,84.974884C97.971428,85.033333,97.92218,85.088936,97.870567,85.14225z"/>
    <path transform="matrix(1,0,0,-1,0,0)" style="stroke:none;fill:#000000;fill-rule:evenodd" d="M100.615005,21.372528C100.615005,20.967384,100.704582,20.666969,100.885101,20.468536C101.068382,20.270096,101.350883,20.170876,101.733978,20.170876C101.994423,20.170876,102.221802,20.243912,102.41748,20.391365C102.62281,20.552589,102.726166,20.757919,102.726166,21.00872C102.726166,21.22094,102.618675,21.441429,102.406456,21.670181C102.343071,21.732193,102.281059,21.792824,102.219048,21.852081C102.155655,21.909958,102.082619,21.973351,101.998558,22.039497C101.913124,22.108398,101.829063,22.180054,101.745003,22.254471C101.659561,22.331642,101.579636,22.408813,101.502464,22.485977C101.425293,22.56591,101.355019,22.64859,101.293007,22.734024C101.156578,22.924194,101.08905,23.115746,101.08905,23.307289C101.08905,23.497459,101.124886,23.665581,101.199295,23.808899C101.272331,23.954971,101.370171,24.078995,101.49144,24.178215C101.745003,24.390427,102.048172,24.497917,102.400948,24.497917C102.595253,24.497917,102.742699,24.475868,102.841919,24.43177C102.943893,24.390427,103.018311,24.361488,103.062408,24.343575C103.109261,24.32428,103.157486,24.316017,103.205719,24.316017C103.252571,24.316017,103.28978,24.321526,103.315964,24.33255C103.340767,24.343575,103.362816,24.354599,103.382111,24.365623C103.40416,24.376648,103.423447,24.387672,103.442741,24.398697C103.460655,24.409721,103.478569,24.415237,103.497864,24.415237C103.541962,24.406967,103.561256,24.384918,103.558502,24.349091C103.558502,24.316017,103.55574,24.288452,103.552986,24.266403C103.552986,24.247116,103.550232,24.216797,103.547478,24.172699C103.525429,23.981155,103.506134,23.839211,103.492355,23.74826C103.481331,23.660072,103.473061,23.593925,103.470306,23.549828C103.466171,23.508484,103.460655,23.469902,103.453766,23.434074C103.434471,23.341743,103.401405,23.296265,103.354546,23.296265C103.295296,23.296265,103.263596,23.329338,103.260841,23.395485C103.234657,23.836456,103.048622,24.125847,102.704117,24.266403C102.585602,24.313255,102.462959,24.338066,102.334801,24.338066C102.205261,24.338066,102.093643,24.31739,101.998558,24.277428C101.906227,24.236092,101.823547,24.183723,101.750511,24.117577C101.587906,23.970131,101.50798,23.800629,101.50798,23.610458C101.50798,23.334854,101.667831,23.064758,101.987534,22.800171C102.075729,22.725761,102.165298,22.64859,102.257629,22.568665C102.348579,22.487358,102.450554,22.400543,102.560799,22.309593C102.673798,22.217262,102.775772,22.118042,102.863968,22.011932C103.076187,21.769402,103.18367,21.526863,103.18367,21.284332C103.18367,21.041794,103.139572,20.840607,103.051384,20.68351C102.963188,20.529167,102.844673,20.399628,102.698601,20.297653C102.411972,20.101974,102.049545,20.005508,101.612709,20.005508C101.270958,20.005508,100.923691,20.095085,100.570915,20.275604C100.456535,20.333488,100.377983,20.381714,100.333893,20.418922C100.281525,20.46302,100.256721,20.491959,100.256721,20.507118C100.274635,20.631142,100.298058,20.752411,100.328377,20.870918C100.357315,20.988052,100.377983,21.083138,100.389008,21.157555C100.402794,21.230591,100.412437,21.280197,100.416573,21.306381C100.419327,21.331184,100.427597,21.357368,100.438622,21.383553C100.46067,21.449699,100.495117,21.482765,100.54335,21.482765C100.590202,21.482765,100.615005,21.445564,100.615005,21.372528z"/>
    <path transform="matrix(1,0,0,-1,0,0)" style="stroke:none;fill:#000000;fill-rule:evenodd" d="M93.88385,20.09922C93.88385,20.117134,93.89212,20.126778,93.911415,20.126778L93.994095,20.126778C94.184265,20.126778,94.348251,20.177765,94.484673,20.28112C94.586655,20.358292,94.65004,20.451996,94.672089,20.562241L95.410721,24.012848C95.410721,24.019737,95.410721,24.029381,95.410721,24.040405C95.410721,24.080368,95.379021,24.101044,95.317009,24.101044L94.396484,24.101044C94.242142,24.101044,94.100204,24.025246,93.972046,23.875046C93.846642,23.727592,93.769478,23.56636,93.740532,23.389977C93.732269,23.356903,93.723999,23.337608,93.712975,23.334854C93.704704,23.334854,93.699196,23.334854,93.696442,23.334854L93.624779,23.334854C93.609619,23.334854,93.60273,23.341743,93.60273,23.356903C93.70195,23.837837,93.765343,24.15065,93.795654,24.293968L93.823219,24.426262C93.834244,24.488274,93.861801,24.519966,93.905899,24.519966C93.919678,24.519966,93.933464,24.511696,93.944489,24.497917C93.955513,24.486893,93.969292,24.473114,93.988579,24.459328C94.032677,24.417992,94.094688,24.398697,94.175995,24.398697L97.455727,24.398697C97.543922,24.398697,97.600418,24.411102,97.626602,24.437279C97.651405,24.466225,97.6707,24.486893,97.681725,24.497917C97.692749,24.511696,97.706528,24.519966,97.725822,24.519966C97.780945,24.519966,97.808502,24.495163,97.808502,24.448311C97.808502,24.440041,97.800232,24.400078,97.786453,24.327042C97.745117,24.13549,97.684479,23.843346,97.604553,23.450607L97.582504,23.367928C97.582504,23.345879,97.57148,23.334854,97.549431,23.334854L97.510849,23.334854C97.48053,23.334854,97.452972,23.40789,97.428162,23.555336C97.406113,23.705544,97.385445,23.811653,97.367531,23.875046C97.315163,24.025246,97.232483,24.101044,97.119484,24.101044L96.138321,24.101044C96.108002,24.101044,96.083199,24.096909,96.06115,24.090019C96.041862,24.081749,96.028076,24.056946,96.017052,24.012848C95.924728,23.582901,95.843422,23.20256,95.774521,22.871834C95.704239,22.5411,95.643608,22.251717,95.592621,22.006424C95.540253,21.763885,95.496155,21.557182,95.460327,21.389061C95.423119,21.223701,95.391426,21.085892,95.366623,20.975655C95.344574,20.86541,95.325279,20.778595,95.311501,20.716583C95.300476,20.657326,95.292206,20.613228,95.289452,20.58429C95.278427,20.540192,95.272911,20.501602,95.272911,20.468536C95.272911,20.438217,95.29496,20.40239,95.339058,20.358292C95.383156,20.316948,95.435524,20.28112,95.498909,20.248047C95.653252,20.16674,95.804832,20.126778,95.956421,20.126778L96.050125,20.126778C96.063911,20.126778,96.072174,20.117134,96.072174,20.09922L96.072174,20.027557C96.072174,20.00827,96.063911,20,96.050125,20L93.905899,20C93.890739,20,93.88385,20.00827,93.88385,20.027557L93.88385,20.09922z"/>
    <path transform="matrix(1,0,0,-1,0,0)" style="stroke:none;fill:#000000;fill-rule:evenodd" d="M89.507622,21.267792C89.474548,21.105186,89.441475,20.953606,89.408401,20.810287C89.378082,20.669724,89.356033,20.559486,89.342255,20.479561C89.327095,20.40239,89.311935,20.326591,89.298157,20.253555C89.287132,20.179146,89.277489,20.129539,89.270599,20.104729C89.262329,20.08268,89.251305,20.060631,89.237526,20.038582C89.226501,20.016533,89.204453,20.005508,89.171379,20.005508C89.14106,20.005508,89.112122,20.016533,89.083183,20.038582C89.056999,20.063393,89.029442,20.095085,89.000504,20.132294C88.970184,20.172256,88.942627,20.212219,88.917816,20.253555C88.89164,20.297653,88.796555,20.440971,88.631187,20.68351C88.46582,20.926041,88.272896,21.208542,88.052414,21.532379C87.831924,21.858971,87.641754,22.134583,87.484657,22.3592C87.330322,22.586578,87.203537,22.769859,87.104324,22.910416C87.007858,23.053734,86.930687,23.166733,86.87281,23.252167C86.813553,23.340363,86.769455,23.403755,86.740517,23.445099C86.71434,23.489189,86.692291,23.525024,86.674377,23.555336C86.59996,23.654556,86.554482,23.70417,86.536568,23.70417C86.503494,23.70417,86.47731,23.655937,86.459396,23.560852C86.382233,23.170868,86.300926,22.786392,86.216866,22.408813C86.131424,22.033981,86.062523,21.717033,86.007401,21.460724C85.95504,21.207161,85.930237,21.022507,85.930237,20.909508C85.930237,20.799263,85.937126,20.697289,85.952278,20.606339C85.9702,20.514008,85.999138,20.432701,86.040474,20.3638C86.120399,20.20533,86.241669,20.126778,86.404282,20.126778C86.47731,20.126778,86.522789,20.122643,86.542084,20.115753C86.559998,20.107491,86.569641,20.093704,86.569641,20.071655L86.569641,20.044098C86.569641,20.013779,86.547592,20,86.503494,20L85.0979,20C85.064827,20,85.038643,20.001381,85.020729,20.005508C85.005569,20.012405,84.99868,20.030319,84.99868,20.060631C84.99868,20.093704,85.004189,20.115753,85.015213,20.126778C85.026237,20.140556,85.040024,20.151581,85.059311,20.159851C85.08136,20.16674,85.100655,20.172256,85.119949,20.176392C85.141998,20.183281,85.169556,20.192924,85.202629,20.203949C85.238457,20.217728,85.281174,20.243912,85.329407,20.28112C85.376259,20.316948,85.420357,20.359665,85.4617,20.407898C85.549896,20.509872,85.606392,20.614609,85.632576,20.722092L86.288521,23.819923C86.29541,23.844727,86.302299,23.872284,86.31057,23.902603C86.317459,23.931541,86.321594,23.964615,86.321594,24.001823C86.321594,24.041786,86.300926,24.080368,86.260963,24.117577C86.223755,24.153404,86.178284,24.183723,86.123161,24.205772C86.019806,24.24987,85.926102,24.271919,85.842041,24.271919C85.756599,24.271919,85.701477,24.273293,85.676674,24.277428C85.654625,24.284317,85.6436,24.302238,85.6436,24.33255C85.6436,24.361488,85.651871,24.379402,85.671165,24.387672C85.693207,24.394562,85.723526,24.398697,85.76487,24.398697L86.547592,24.398697C86.668861,24.398697,86.746033,24.387672,86.779106,24.365623C86.823204,24.343575,86.875565,24.285698,86.938957,24.194748L89.099724,21.014236C89.113503,20.994942,89.128662,20.972893,89.143814,20.94809C89.1576,20.926041,89.17276,20.915016,89.187912,20.915016C89.201698,20.915016,89.211342,20.928795,89.215477,20.959114C89.222366,20.988052,89.23201,21.022507,89.243034,21.063843C89.254059,21.103806,89.262329,21.149284,89.270599,21.201653C89.281624,21.25264,89.294022,21.318779,89.309181,21.400085C89.327095,21.484146,89.353279,21.604034,89.386353,21.758377C89.419426,21.91272,89.453873,22.078079,89.491081,22.254471C89.579277,22.651344,89.645424,22.954514,89.689522,23.163979C89.73362,23.37619,89.766693,23.530533,89.788742,23.626999C89.813545,23.722084,89.827324,23.806145,89.827324,23.880554C89.827324,24.019737,89.773582,24.131355,89.667473,24.216797C89.61924,24.252625,89.496597,24.271919,89.298157,24.271919C89.267838,24.271919,89.24855,24.278809,89.237526,24.293968C89.229256,24.311882,89.226501,24.328415,89.226501,24.343575C89.226501,24.379402,89.25544,24.398697,89.314697,24.398697L90.692734,24.398697C90.739586,24.398697,90.764389,24.376648,90.764389,24.33255C90.764389,24.291206,90.739586,24.271919,90.692734,24.271919L90.565956,24.271919C90.400589,24.271919,90.262787,24.200264,90.152542,24.056946C90.100174,23.990799,90.054703,23.855751,90.01474,23.654556C89.973396,23.451988,89.940323,23.29213,89.91552,23.175003C89.889336,23.056488,89.860397,22.92144,89.827324,22.767097C89.797005,22.615517,89.763931,22.455666,89.728104,22.287544C89.690903,22.122177,89.653694,21.951302,89.617859,21.77491C89.580658,21.598526,89.543449,21.429024,89.507622,21.267792z"/>
    <path transform="matrix(1,0,0,-1,0,0)" style="stroke:none;fill:#000000;fill-rule:evenodd" d="M81.936668,20.970139C81.936668,20.943954,81.910484,20.872299,81.859497,20.755165C81.807129,20.63665,81.763031,20.523651,81.727203,20.413414C81.69413,20.303169,81.663811,20.216354,81.639008,20.154343C81.616959,20.095085,81.592155,20.055122,81.567352,20.033073C81.541168,20.011024,81.498451,20,81.440575,20L78.039574,20C78.024414,20,78.017525,20.00827,78.017525,20.027557L78.034058,20.09922C78.040955,20.117134,78.064377,20.126778,78.105721,20.126778C78.149818,20.126778,78.202179,20.129539,78.265572,20.137802C78.327583,20.148827,78.382706,20.168121,78.430939,20.198441C78.530151,20.26458,78.59906,20.388603,78.640396,20.573265C78.728592,20.988052,78.805763,21.353233,78.87191,21.670181C78.940811,21.989883,79.000069,22.265495,79.048294,22.497002C79.099281,22.73127,79.142006,22.928329,79.175079,23.086807C79.210907,23.243904,79.241226,23.374817,79.263268,23.478165C79.288078,23.580147,79.307365,23.660072,79.31839,23.715187C79.329414,23.773071,79.337685,23.819923,79.345955,23.852997C79.352844,23.897095,79.356979,23.941185,79.356979,23.985283C79.356979,24.029381,79.336304,24.070724,79.296341,24.112068C79.255005,24.152031,79.204018,24.185104,79.142006,24.211281C79.031761,24.251244,78.900848,24.271919,78.750641,24.271919C78.739616,24.271919,78.734108,24.28019,78.734108,24.299477L78.745132,24.37114C78.752022,24.389053,78.763046,24.398697,78.778198,24.398697L82.041397,24.398697C82.088249,24.398697,82.125458,24.393188,82.151642,24.382164C82.18058,24.373894,82.19574,24.357353,82.19574,24.33255C82.19574,24.310501,82.19574,24.291206,82.19574,24.277428C82.19574,24.266403,82.191605,24.234711,82.184715,24.183723C82.173691,24.128601,82.137856,23.880554,82.079979,23.439583C82.075844,23.409264,82.059311,23.395485,82.030373,23.395485C81.971115,23.395485,81.938042,23.418915,81.931152,23.46714C81.922882,23.500214,81.920128,23.536049,81.920128,23.577385C81.920128,23.617348,81.915993,23.662827,81.909103,23.715187C81.900833,23.770309,81.882919,23.830948,81.853981,23.897095C81.823669,23.965996,81.78508,24.025246,81.738228,24.073479C81.634872,24.175453,81.502586,24.227821,81.341354,24.227821L80.20034,24.227821C80.081825,24.227821,80.014305,24.218178,79.996384,24.200264C79.966072,24.180969,79.942642,24.123093,79.924728,24.023872L79.594002,22.463936C79.589867,22.448776,79.588486,22.436371,79.588486,22.425346C79.588486,22.372978,79.632584,22.348175,79.720779,22.348175L80.86731,22.348175C80.999596,22.348175,81.131889,22.397789,81.264183,22.497002C81.359268,22.574173,81.440575,22.673393,81.506714,22.794662C81.5205,22.819466,81.539787,22.833244,81.561836,22.833244L81.616959,22.833244C81.634872,22.833244,81.644524,22.824974,81.644524,22.811195C81.644524,22.796036,81.641762,22.789146,81.639008,22.789146C81.639008,22.789146,81.639008,22.786392,81.639008,22.783638L81.390961,21.620575C81.379936,21.576477,81.357887,21.554428,81.324814,21.554428C81.302765,21.554428,81.287613,21.557182,81.280716,21.565453C81.272453,21.572342,81.266937,21.588875,81.264183,21.615059C81.260048,21.643997,81.255913,21.675697,81.253159,21.708771C81.253159,21.744598,81.247643,21.788696,81.236618,21.841057C81.225601,21.892044,81.204926,21.936142,81.175987,21.973351C81.145668,22.009178,81.112602,22.039497,81.076767,22.061546C81.002357,22.097374,80.900383,22.116669,80.768089,22.116669L79.643608,22.116669C79.624321,22.116669,79.59951,22.108398,79.566437,22.09462C79.536125,22.07946,79.51683,22.051895,79.505806,22.011932C79.494781,21.970596,79.485138,21.930634,79.478249,21.890671C79.469978,21.853462,79.453438,21.780426,79.428635,21.670181C79.402451,21.562698,79.373512,21.430405,79.340439,21.273308C79.310127,21.11483,79.285316,20.986671,79.263268,20.887459C79.230202,20.744141,79.213661,20.628387,79.213661,20.540192C79.213661,20.45475,79.230202,20.388603,79.263268,20.341751C79.299103,20.297653,79.347328,20.26458,79.406586,20.242538C79.494781,20.209465,79.640854,20.192924,79.847557,20.192924C80.052887,20.192924,80.223763,20.195679,80.360191,20.203949C80.495239,20.210838,80.615128,20.223244,80.718483,20.242538C80.820457,20.260452,80.908646,20.283875,80.983063,20.314194C81.060234,20.343132,81.131889,20.380341,81.198036,20.424438C81.282097,20.48645,81.374428,20.567749,81.473648,20.666969C81.575623,20.768944,81.639008,20.835091,81.661057,20.86541C81.683105,20.894348,81.705154,20.920532,81.727203,20.942581C81.782326,21.000458,81.829178,21.030769,81.870522,21.030769C81.914619,21.030769,81.936668,21.010101,81.936668,20.970139z"/>
    <path transform="matrix(1,0,0,-1,0,0)" style="stroke:none;fill:#000000;fill-rule:evenodd" d="M74.468544,23.560852L74.468544,23.599434C74.468544,23.613213,74.460274,23.621483,74.446495,23.621483C74.4272,23.621483,74.403778,23.599434,74.37484,23.555336L72.241631,20.209465C72.200294,20.143318,72.158951,20.09095,72.114853,20.055122C72.073509,20.017914,72.032173,20,71.988075,20C71.946732,20,71.919174,20.005508,71.905396,20.016533C71.890236,20.030319,71.879211,20.045479,71.872322,20.060631C71.864052,20.08268,71.847511,20.170876,71.822708,20.325218C71.796524,20.482315,71.759323,20.705559,71.712463,20.992188C71.668373,21.281578,71.621513,21.573723,71.574661,21.868622C71.530563,22.16214,71.483711,22.45842,71.436859,22.756073C71.388626,23.053734,71.351418,23.275597,71.326614,23.42305C71.304565,23.569122,71.290787,23.654556,71.288033,23.676605C71.283897,23.698654,71.279762,23.720703,71.277008,23.742752C71.268738,23.797874,71.260468,23.825432,71.249443,23.825432C71.238419,23.825432,71.227394,23.815788,71.21637,23.797874C71.208107,23.77858,71.202591,23.756531,71.199837,23.731728C71.180542,23.676605,71.147469,23.560852,71.100616,23.38446C71.052383,23.208076,70.980728,22.940735,70.885643,22.585197C70.793312,22.228287,70.717522,21.941658,70.659645,21.725304C70.600388,21.507576,70.557671,21.357368,70.532867,21.273308C70.510818,21.187866,70.49015,21.109322,70.472229,21.036285C70.439163,20.892967,70.422623,20.773079,70.422623,20.677994C70.422623,20.453377,70.486015,20.28801,70.615547,20.1819C70.659645,20.144691,70.717522,20.126778,70.791939,20.126778C70.86911,20.126778,70.907692,20.111618,70.907692,20.08268L70.907692,20.038582C70.907692,20.012405,70.864975,20,70.780914,20L69.584778,20C69.543434,20,69.524139,20.022049,69.524139,20.066147C69.524139,20.09095,69.531029,20.107491,69.546188,20.115753C69.559975,20.122643,69.591667,20.135048,69.6399,20.154343C69.74601,20.194305,69.867271,20.28801,70.0037,20.435463C70.087761,20.530548,70.155281,20.690399,70.207649,20.915016C70.225563,20.992188,70.26828,21.152039,70.334427,21.394577C70.400574,21.639862,70.451561,21.831413,70.48877,21.967842C70.57283,22.283409,70.64035,22.535591,70.692719,22.723C70.798828,23.137794,70.864975,23.389977,70.891159,23.478165C70.915962,23.56636,70.935257,23.633888,70.946274,23.682121C70.97522,23.79512,70.990372,23.880554,70.990372,23.935677C70.990372,23.990799,70.979347,24.040405,70.957298,24.084503C70.935257,24.128601,70.907692,24.164429,70.874619,24.194748C70.808472,24.245735,70.723038,24.271919,70.621063,24.271919L70.494278,24.271919C70.457077,24.271919,70.435028,24.277428,70.428139,24.288452C70.424004,24.302238,70.422623,24.318771,70.422623,24.338066C70.422623,24.373894,70.446053,24.395943,70.494278,24.404213L71.657349,24.404213C71.72625,24.404213,71.767586,24.351845,71.77861,24.24987C71.789635,24.175453,71.807549,24.0597,71.833733,23.902603C71.858536,23.74826,71.894371,23.534668,71.938461,23.263191C71.982559,22.990341,72.023903,22.718872,72.065247,22.447395C72.109344,22.17868,72.150681,21.91272,72.192024,21.648132C72.231987,21.383553,72.26368,21.186493,72.285728,21.058334C72.307777,20.928795,72.320183,20.859894,72.324318,20.848869C72.331207,20.837845,72.338097,20.832336,72.346367,20.832336C72.360146,20.832336,72.375305,20.840607,72.390465,20.859894C72.555824,21.120346,72.729462,21.394577,72.914116,21.681206C73.101532,21.970596,73.290321,22.265495,73.481865,22.563148C73.89666,23.213585,74.187424,23.668335,74.352791,23.930168C74.520912,24.194748,74.617371,24.338066,74.63942,24.360115C74.661469,24.384918,74.691788,24.398697,74.733124,24.398697L75.725311,24.398697C75.758385,24.398697,75.777679,24.393188,75.78595,24.382164C75.796974,24.373894,75.802483,24.360115,75.802483,24.338066C75.802483,24.289833,75.736336,24.266403,75.60405,24.266403C75.47451,24.266403,75.378052,24.229202,75.311905,24.156166C75.234734,24.07486,75.168587,23.899849,75.113464,23.632507C75.098305,23.558098,75.083145,23.489189,75.069366,23.42305C75.032158,23.257683,75.014244,23.170868,75.014244,23.163979L74.479568,20.628387C74.471298,20.595314,74.468544,20.558105,74.468544,20.518143C74.468544,20.476799,74.475433,20.432701,74.490593,20.385849C74.508507,20.337616,74.534691,20.294899,74.567764,20.259071C74.629776,20.177765,74.711075,20.133667,74.810295,20.126778L74.959122,20.126778C75.017006,20.126778,75.047318,20.107491,75.047318,20.071655C75.047318,20.034454,75.036293,20.012405,75.014244,20.005508C74.992195,20.001381,74.960503,20,74.92054,20L73.239334,20C73.195236,20,73.173187,20.013779,73.173187,20.044098L73.178696,20.077171C73.178696,20.110245,73.207642,20.126778,73.266891,20.126778C73.328903,20.126778,73.389542,20.139183,73.448792,20.165367C73.510803,20.194305,73.570061,20.232887,73.625183,20.28112C73.742317,20.38723,73.818108,20.520897,73.851181,20.68351C73.887009,20.848869,73.925598,21.028015,73.966934,21.223701C74.011032,21.422134,74.056511,21.627464,74.104744,21.841057C74.217743,22.388138,74.316956,22.858047,74.402397,23.252167L74.463028,23.522263C74.46579,23.540176,74.468544,23.552582,74.468544,23.560852z"/>
    <path transform="matrix(1,0,0,-1,0,0)" style="stroke:none;fill:#000000;fill-rule:evenodd" d="M63.244987,20.09922C63.244987,20.117134,63.253258,20.126778,63.272549,20.126778L63.355232,20.126778C63.545403,20.126778,63.709389,20.177765,63.845814,20.28112C63.947788,20.358292,64.011177,20.451996,64.033226,20.562241L64.771851,24.012848C64.771851,24.019737,64.771851,24.029381,64.771851,24.040405C64.771851,24.080368,64.740158,24.101044,64.678146,24.101044L63.757618,24.101044C63.603279,24.101044,63.461342,24.025246,63.333183,23.875046C63.207783,23.727592,63.130611,23.56636,63.101673,23.389977C63.093403,23.356903,63.085136,23.337608,63.074112,23.334854C63.065845,23.334854,63.060333,23.334854,63.057575,23.334854L62.985916,23.334854C62.97076,23.334854,62.963867,23.341743,62.963867,23.356903C63.063087,23.837837,63.126476,24.15065,63.156796,24.293968L63.184357,24.426262C63.195381,24.488274,63.222939,24.519966,63.267036,24.519966C63.280819,24.519966,63.294598,24.511696,63.305622,24.497917C63.316647,24.486893,63.330429,24.473114,63.34972,24.459328C63.393818,24.417992,63.45583,24.398697,63.537132,24.398697L66.816864,24.398697C66.90506,24.398697,66.961555,24.411102,66.98774,24.437279C67.012543,24.466225,67.031837,24.486893,67.042862,24.497917C67.053886,24.511696,67.067665,24.519966,67.08696,24.519966C67.142082,24.519966,67.16964,24.495163,67.16964,24.448311C67.16964,24.440041,67.161377,24.400078,67.147591,24.327042C67.106247,24.13549,67.045616,23.843346,66.965691,23.450607L66.943642,23.367928C66.943642,23.345879,66.932617,23.334854,66.910568,23.334854L66.871986,23.334854C66.841667,23.334854,66.81411,23.40789,66.789307,23.555336C66.767258,23.705544,66.746582,23.811653,66.728668,23.875046C66.6763,24.025246,66.59362,24.101044,66.480621,24.101044L65.499458,24.101044C65.469147,24.101044,65.444336,24.096909,65.422287,24.090019C65.403,24.081749,65.389221,24.056946,65.378189,24.012848C65.285858,23.582901,65.204559,23.20256,65.135658,22.871834C65.065376,22.5411,65.004745,22.251717,64.953751,22.006424C64.90139,21.763885,64.857292,21.557182,64.821465,21.389061C64.784256,21.223701,64.752563,21.085892,64.727753,20.975655C64.705704,20.86541,64.686417,20.778595,64.672638,20.716583C64.661613,20.657326,64.653343,20.613228,64.650589,20.58429C64.639565,20.540192,64.634048,20.501602,64.634048,20.468536C64.634048,20.438217,64.656097,20.40239,64.700195,20.358292C64.744293,20.316948,64.796661,20.28112,64.860046,20.248047C65.014389,20.16674,65.16597,20.126778,65.317558,20.126778L65.41127,20.126778C65.425049,20.126778,65.433311,20.117134,65.433311,20.09922L65.433311,20.027557C65.433311,20.00827,65.425049,20,65.41127,20L63.267036,20C63.251881,20,63.244987,20.00827,63.244987,20.027557L63.244987,20.09922z"/>
    <path transform="matrix(1,0,0,-1,0,0)" style="stroke:none;fill:#000000;fill-rule:evenodd" d="M56.935371,22.000908L56.527473,21.978859C56.497154,21.978859,56.480618,21.963707,56.477863,21.934769L56.169182,20.501602C56.160915,20.464401,56.158157,20.420303,56.158157,20.369316C56.158157,20.321083,56.176071,20.278366,56.21328,20.242538C56.249107,20.20533,56.29734,20.177765,56.356594,20.159851C56.43652,20.137802,56.563301,20.126778,56.736935,20.126778C56.750713,20.126778,56.758984,20.117134,56.758984,20.09922L56.742447,20.027557C56.734177,20.00827,56.72591,20,56.714886,20L55.039192,20C55.024033,20,55.017143,20.00827,55.017143,20.027557L55.03368,20.09922C55.040569,20.117134,55.066753,20.126778,55.110847,20.126778C55.154945,20.126778,55.205933,20.129539,55.26519,20.137802C55.327202,20.148827,55.382324,20.168121,55.430553,20.198441C55.532528,20.26458,55.60281,20.388603,55.640015,20.573265C55.646904,20.606339,55.652416,20.63665,55.656551,20.666969C55.656551,20.666969,55.663441,20.701424,55.6786,20.771698C55.689625,20.815796,55.702026,20.870918,55.717186,20.937065C55.730965,21.003212,55.750259,21.087273,55.772308,21.190628C55.794357,21.29673,55.81916,21.424889,55.849476,21.576477C55.882549,21.726685,55.921135,21.908585,55.965233,22.122177C56.012085,22.338531,56.067207,22.590714,56.130596,22.877342C56.280804,23.582901,56.356594,23.954971,56.356594,23.996307C56.356594,24.098289,56.313877,24.164429,56.229816,24.194748C56.144379,24.223686,56.014843,24.238846,55.838451,24.238846L55.673088,24.238846C55.662064,24.238846,55.656551,24.247116,55.656551,24.266403L55.673088,24.349091C55.684113,24.378029,55.697891,24.393188,55.717186,24.393188L57.266102,24.393188C57.813183,24.393188,58.214191,24.310501,58.467751,24.145142C58.739223,23.964615,58.875648,23.679359,58.875648,23.290756C58.875648,23.055107,58.773674,22.84565,58.572479,22.662369C58.420895,22.521812,58.139778,22.34404,57.729122,22.127693C57.669865,22.097374,57.640926,22.068436,57.640926,22.039497C57.640926,22.009178,57.651951,21.974731,57.674,21.934769C57.698803,21.89756,57.731876,21.843811,57.77322,21.77491C57.817314,21.704636,57.868301,21.626083,57.927559,21.537888C57.985435,21.449699,58.050205,21.353233,58.120483,21.251259C58.19352,21.152039,58.270691,21.052818,58.351994,20.953606C58.431919,20.854385,58.514603,20.757919,58.60004,20.666969C58.684101,20.574638,58.768162,20.49334,58.8536,20.424438C59.04377,20.270096,59.209133,20.192924,59.349693,20.192924L59.432377,20.192924C59.512302,20.192924,59.559155,20.183281,59.570179,20.165367C59.583961,20.146072,59.592228,20.128159,59.592228,20.110245L59.592228,20.060631C59.592228,20.019295,59.559155,20,59.493011,20L59.261497,20C58.702015,20,58.215569,20.27285,57.800781,20.821312C57.679512,20.986671,57.57616,21.132744,57.4921,21.262283C57.410793,21.394577,57.343269,21.499306,57.288151,21.576477C57.235783,21.653648,57.190308,21.722549,57.150345,21.785934C57.113136,21.852081,57.08971,21.892044,57.078686,21.907204C57.070419,21.925117,57.062149,21.940277,57.051125,21.951302C57.020809,21.984375,56.982224,22.000908,56.935371,22.000908zM57.381855,24.24987L57.227516,24.24987C57.106247,24.24987,57.026321,24.230576,56.990494,24.194748C56.95742,24.161674,56.938126,24.125847,56.935371,24.090019L56.555035,22.298569C56.54401,22.265495,56.538498,22.229668,56.538498,22.19384C56.538498,22.156631,56.590862,22.138718,56.698349,22.138718C56.808594,22.138718,56.927105,22.151115,57.056641,22.177299C57.188931,22.206238,57.312954,22.246201,57.431465,22.298569C57.552734,22.349556,57.664352,22.411568,57.767708,22.485977C57.873814,22.559013,57.963387,22.641701,58.037804,22.734024C58.203167,22.932465,58.285851,23.144684,58.285851,23.373436C58.285851,23.644913,58.203167,23.859886,58.037804,24.018356C57.879326,24.172699,57.660217,24.24987,57.381855,24.24987z"/>
    <path transform="matrix(1,0,0,-1,0,0)" style="stroke:none;fill:#000000;fill-rule:evenodd" d="M47.352333,20.038582C47.352333,20.096466,47.374382,20.126778,47.41848,20.126778L47.484627,20.126778C47.564552,20.126778,47.625187,20.140556,47.666527,20.170876C47.70649,20.199814,47.778149,20.282501,47.8815,20.418922C47.98761,20.55397,48.132305,20.741386,48.316959,20.981163C48.504375,21.223701,48.691788,21.467613,48.8792,21.714279C49.066612,21.959572,49.254028,22.204865,49.441441,22.447395C49.628853,22.689934,49.806618,22.922821,49.97612,23.147438C50.148373,23.370682,50.309605,23.580147,50.461189,23.775826C50.611393,23.974258,50.721638,24.117577,50.791916,24.205772C50.860821,24.296722,50.910427,24.35598,50.940746,24.382164C50.97382,24.406967,51.013783,24.420746,51.062012,24.420746L51.144695,24.420746C51.202572,24.420746,51.23978,24.404213,51.254936,24.37114C51.272854,24.338066,51.283878,24.296722,51.28801,24.24987L51.376205,20.468536C51.383095,20.292145,51.491959,20.183281,51.701424,20.143318C51.756542,20.132294,51.80891,20.126778,51.861275,20.126778L51.999077,20.126778C52.023884,20.126778,52.037663,20.110245,52.037663,20.077171L52.037663,20.044098C52.037663,20.013779,52.022507,20,51.993565,20L50.0588,20C50.028484,20,50.014702,20.011024,50.014702,20.033073L50.014702,20.093704C50.014702,20.115753,50.039509,20.126778,50.091873,20.126778C50.14286,20.126778,50.196606,20.128159,50.251724,20.132294C50.309605,20.135048,50.359215,20.140556,50.400555,20.148827C50.550762,20.17363,50.648602,20.216354,50.692699,20.275604C50.739552,20.337616,50.771248,20.394119,50.786404,20.446487C50.811211,20.526413,50.824989,20.640785,50.824989,20.788239L50.80294,21.686722L50.80294,21.741837C50.80294,21.832794,50.747818,21.879646,50.637577,21.879646L49.386318,21.879646C49.30088,21.879646,49.233356,21.842438,49.182369,21.769402C49.074883,21.626083,48.967396,21.484146,48.857151,21.344963C48.749664,21.208542,48.661469,21.094162,48.592567,21.003212C48.526421,20.915016,48.479568,20.851631,48.454765,20.815796C48.428581,20.778595,48.402401,20.740005,48.377594,20.700043C48.32523,20.611847,48.300423,20.520897,48.300423,20.429947C48.300423,20.341751,48.339008,20.267342,48.41618,20.209465C48.496105,20.154343,48.599457,20.126778,48.724861,20.126778L48.8792,20.126778C48.904003,20.126778,48.917786,20.112999,48.917786,20.088196C48.909515,20.035828,48.901249,20.00827,48.890224,20.005508C48.8792,20.001381,48.862663,20,48.840614,20L47.407455,20C47.371628,20,47.352333,20.012405,47.352333,20.038582zM50.791916,22.265495L50.758842,23.665581C50.758842,23.720703,50.747818,23.74826,50.725773,23.74826C50.703724,23.74826,50.672028,23.720703,50.632065,23.665581C50.590725,23.610458,50.528713,23.527779,50.444653,23.417534C50.363346,23.307289,50.273773,23.188782,50.174557,23.064758C49.954071,22.780884,49.795597,22.576935,49.700512,22.452911C49.608181,22.327507,49.557194,22.257225,49.546169,22.243446C49.535145,22.232422,49.52412,22.218643,49.5131,22.204865C49.486916,22.167656,49.474514,22.141472,49.474514,22.127693C49.474514,22.116669,49.480026,22.111153,49.491051,22.111153L50.643089,22.111153C50.687187,22.111153,50.721638,22.123558,50.747818,22.149742C50.77676,22.17868,50.791916,22.217262,50.791916,22.265495z"/>
    <path transform="matrix(1,0,0,-1,0,0)" style="stroke:none;fill:#000000;fill-rule:evenodd" d="M42.708557,21.77491C42.708557,21.841057,42.743008,21.87413,42.813286,21.87413C43.276306,21.87413,43.64011,21.992645,43.904694,22.232422C44.176167,22.485977,44.312592,22.841515,44.312592,23.301781C44.312592,23.932922,43.944656,24.24987,43.210163,24.24987C43.088894,24.24987,43.008968,24.230576,42.973141,24.194748C42.940067,24.161674,42.920776,24.125847,42.918018,24.090019L42.151829,20.501602C42.143562,20.464401,42.140804,20.421677,42.140804,20.374825C42.140804,20.326591,42.158718,20.283875,42.195927,20.248047C42.235889,20.210838,42.2855,20.1819,42.344753,20.159851C42.417789,20.137802,42.54319,20.126778,42.719582,20.126778C42.73336,20.126778,42.741631,20.117134,42.741631,20.09922L42.725094,20.027557C42.716824,20.00827,42.708557,20,42.697533,20L41.021839,20C41.00668,20,40.99979,20.00827,40.99979,20.027557L41.016327,20.09922C41.023216,20.117134,41.0494,20.126778,41.093494,20.126778C41.137592,20.126778,41.18858,20.129539,41.247837,20.137802C41.309849,20.148827,41.364967,20.168121,41.4132,20.198441C41.515175,20.26458,41.585457,20.388603,41.622662,20.573265C41.629551,20.606339,41.635063,20.635277,41.639198,20.661461C41.646088,20.690399,41.652981,20.724846,41.661247,20.76619C41.672272,20.810287,41.683296,20.862648,41.694321,20.926041C41.708099,20.992188,41.727394,21.076248,41.749443,21.179604C41.771492,21.281578,41.796295,21.406975,41.826611,21.554428C41.859684,21.704636,41.89827,21.886536,41.942368,22.100128C41.98922,22.312347,42.044342,22.563148,42.107731,22.849785C42.257938,23.562225,42.333729,23.943947,42.333729,23.996307C42.333729,24.05143,42.31995,24.095528,42.295143,24.128601C42.268963,24.164429,42.234512,24.190613,42.190414,24.205772C42.131157,24.227821,42.019539,24.238846,41.854172,24.238846L41.655735,24.238846C41.640575,24.238846,41.633686,24.247116,41.633686,24.266403L41.661247,24.365623C41.661247,24.387672,41.669518,24.398697,41.688808,24.398697L42.64241,24.393188C42.891834,24.393188,43.105431,24.393188,43.281822,24.393188C43.460964,24.393188,43.608414,24.383537,43.722794,24.365623C43.835793,24.346329,43.948792,24.31739,44.059032,24.277428C44.172031,24.240227,44.279518,24.190613,44.378738,24.128601C44.477959,24.069344,44.563396,23.999069,44.63781,23.919144C44.803173,23.742752,44.885857,23.541557,44.885857,23.318314C44.885857,23.097832,44.858295,22.911797,44.803173,22.761589C44.748055,22.610001,44.670883,22.476334,44.571663,22.3592C44.475201,22.244827,44.362202,22.14698,44.229912,22.067055C44.100376,21.985756,43.959816,21.918228,43.805473,21.863106C43.514709,21.766647,43.183979,21.719795,42.813286,21.719795C42.743008,21.719795,42.708557,21.737709,42.708557,21.77491z"/>
    <path transform="matrix(1,0,0,-1,0,0)" style="stroke:none;fill:#000000;fill-rule:evenodd" d="M33.334984,20.038582C33.334984,20.096466,33.357033,20.126778,33.401131,20.126778L33.467278,20.126778C33.547203,20.126778,33.607834,20.140556,33.649178,20.170876C33.68914,20.199814,33.760799,20.282501,33.864151,20.418922C33.970261,20.55397,34.114952,20.741386,34.299614,20.981163C34.487022,21.223701,34.674438,21.467613,34.861851,21.714279C35.049263,21.959572,35.236679,22.204865,35.424091,22.447395C35.611504,22.689934,35.789268,22.922821,35.958771,23.147438C36.131023,23.370682,36.292255,23.580147,36.44384,23.775826C36.594044,23.974258,36.704288,24.117577,36.774567,24.205772C36.843472,24.296722,36.893078,24.35598,36.923397,24.382164C36.95647,24.406967,36.996433,24.420746,37.044662,24.420746L37.127346,24.420746C37.185223,24.420746,37.222431,24.404213,37.237587,24.37114C37.255505,24.338066,37.266529,24.296722,37.27066,24.24987L37.358856,20.468536C37.365746,20.292145,37.474609,20.183281,37.684074,20.143318C37.739193,20.132294,37.791561,20.126778,37.843925,20.126778L37.981728,20.126778C38.006535,20.126778,38.020313,20.110245,38.020313,20.077171L38.020313,20.044098C38.020313,20.013779,38.005157,20,37.976215,20L36.041451,20C36.011135,20,35.997353,20.011024,35.997353,20.033073L35.997353,20.093704C35.997353,20.115753,36.02216,20.126778,36.074524,20.126778C36.125511,20.126778,36.179256,20.128159,36.234375,20.132294C36.292255,20.135048,36.341866,20.140556,36.383205,20.148827C36.533413,20.17363,36.631252,20.216354,36.67535,20.275604C36.722202,20.337616,36.753899,20.394119,36.769054,20.446487C36.793861,20.526413,36.80764,20.640785,36.80764,20.788239L36.785591,21.686722L36.785591,21.741837C36.785591,21.832794,36.730469,21.879646,36.620228,21.879646L35.368969,21.879646C35.283531,21.879646,35.216007,21.842438,35.16502,21.769402C35.057533,21.626083,34.950043,21.484146,34.839802,21.344963C34.732315,21.208542,34.644119,21.094162,34.575218,21.003212C34.509071,20.915016,34.462219,20.851631,34.437416,20.815796C34.411232,20.778595,34.385048,20.740005,34.360245,20.700043C34.30788,20.611847,34.283073,20.520897,34.283073,20.429947C34.283073,20.341751,34.321659,20.267342,34.39883,20.209465C34.478756,20.154343,34.582108,20.126778,34.707512,20.126778L34.861851,20.126778C34.886658,20.126778,34.900436,20.112999,34.900436,20.088196C34.892166,20.035828,34.8839,20.00827,34.872875,20.005508C34.861851,20.001381,34.845314,20,34.823265,20L33.390106,20C33.354279,20,33.334984,20.012405,33.334984,20.038582zM36.774567,22.265495L36.741493,23.665581C36.741493,23.720703,36.730469,23.74826,36.708424,23.74826C36.686375,23.74826,36.654678,23.720703,36.614716,23.665581C36.573376,23.610458,36.511364,23.527779,36.427303,23.417534C36.345997,23.307289,36.256424,23.188782,36.157207,23.064758C35.936722,22.780884,35.778248,22.576935,35.683163,22.452911C35.590832,22.327507,35.539845,22.257225,35.52882,22.243446C35.517796,22.232422,35.506771,22.218643,35.49575,22.204865C35.469566,22.167656,35.457165,22.141472,35.457165,22.127693C35.457165,22.116669,35.462677,22.111153,35.473701,22.111153L36.62574,22.111153C36.669838,22.111153,36.704288,22.123558,36.730469,22.149742C36.759411,22.17868,36.774567,22.217262,36.774567,22.265495z"/>
    <path transform="matrix(1,0,0,-1,0,0)" style="stroke:none;fill:#000000;fill-rule:evenodd" d="M87.676041,55.510109C87.733917,55.75264,87.84967,55.909737,88.023308,55.984154C88.195557,56.061325,88.378838,56.07235,88.574524,56.017227C88.772957,55.964859,88.930054,55.862885,89.048569,55.708549C89.16983,55.554207,89.202904,55.355766,89.147781,55.113235C89.044434,54.663994,88.868042,54.133446,88.618622,53.520226C88.371948,52.909752,88.068779,52.2855,87.709114,51.646088C87.352203,51.006676,86.951195,50.412743,86.507462,49.865662C86.06649,49.321342,85.586937,48.87899,85.068794,48.537239C84.550652,48.198235,84.013214,48.030113,83.459244,48.030113C82.859795,48.030113,82.376106,48.213394,82.009552,48.581329C81.641609,48.947891,81.359116,49.432961,81.160675,50.036537C80.964996,50.642876,80.824432,51.307091,80.736237,52.031944C80.650803,52.759544,80.584656,53.476128,80.537804,54.181679C80.298027,53.420998,80.044464,52.66584,79.777122,51.916183C79.512543,51.166534,79.212128,50.434792,78.878647,49.722351C78.731194,49.387482,78.547913,49.029198,78.327431,48.647476C78.106941,48.268517,77.858894,47.900581,77.58329,47.545052C77.307678,47.188133,76.999001,46.883591,76.657249,46.630028C76.318253,46.376472,75.947556,46.208351,75.543793,46.128426C74.944344,46.009911,74.453766,46.073303,74.072052,46.315834C73.693085,46.558372,73.405075,46.919418,73.206642,47.401733C73.005447,47.886803,72.869019,48.433884,72.798744,49.04435C72.729843,49.657578,72.707794,50.27494,72.732597,50.896439C72.754646,51.516556,72.795982,52.092575,72.853867,52.621742C72.908981,53.153664,72.958595,53.57534,73.002693,53.884026C73.110176,54.552376,73.254875,55.322693,73.438148,56.193611C73.621429,57.064537,73.854317,57.96302,74.138191,58.889061C74.420692,59.815102,74.766579,60.703934,75.174477,61.556938C75.582375,62.408569,76.059181,63.158218,76.607635,63.805897C77.154716,64.452194,77.792755,64.91935,78.520355,65.205986C79.314102,65.517418,80.058243,65.598724,80.752777,65.448517C81.450066,65.296936,82.049515,64.979988,82.549736,64.494919C83.052719,64.012604,83.422035,63.422802,83.657684,62.725517C83.89608,62.026848,83.956718,61.297867,83.839584,60.537193C83.806511,60.297413,83.704536,60.137558,83.536415,60.057632C83.371048,59.97633,83.191902,59.963928,83.001732,60.019051C82.810188,60.076927,82.648956,60.184414,82.516663,60.338753C82.384377,60.49585,82.336143,60.697044,82.373352,60.939575C82.475327,61.61895,82.422958,62.174301,82.213501,62.604248C82.00679,63.036949,81.707756,63.351143,81.315018,63.546825C80.925034,63.741127,80.493706,63.819679,80.019661,63.783848C79.54837,63.750778,79.090866,63.610214,78.647133,63.364925C78.202026,63.118256,77.831337,62.764099,77.533676,62.301079C77.176765,61.749863,76.858444,61.15593,76.580078,60.520653C76.304474,59.888134,76.050911,59.26664,75.819397,58.657547C74.944344,56.327286,74.420692,53.936386,74.248436,51.486237C74.237411,51.29882,74.218124,51.036995,74.193314,50.703514C74.171265,50.37278,74.163002,50.02552,74.171265,49.661713C74.178154,49.297913,74.215363,48.968559,74.281509,48.675041C74.35041,48.380135,74.47168,48.181702,74.645309,48.079727C74.967773,47.884048,75.268188,47.827545,75.543793,47.908852C75.822159,47.988777,76.08123,48.154137,76.321007,48.404945C76.563538,48.658501,76.775757,48.947891,76.960419,49.275864C77.147827,49.60659,77.309059,49.923538,77.445488,50.229469C77.584671,50.534012,77.6894,50.780678,77.759682,50.968094C78.229591,52.106354,78.654022,53.269417,79.03299,54.457283C79.414703,55.643776,79.801933,56.82476,80.196053,58.001602C80.275978,58.239998,80.419289,58.399857,80.625999,58.481155C80.831322,58.561089,81.035278,58.561089,81.237846,58.481155C81.439041,58.399857,81.580978,58.239998,81.662285,58.001602C81.753235,57.710838,81.819382,57.320854,81.860718,56.833023C81.900681,56.343819,81.935135,55.799492,81.965454,55.201424C81.994392,54.601982,82.028839,53.999779,82.070183,53.39344C82.110146,52.787102,82.176292,52.215218,82.268616,51.679161C82.359573,51.145859,82.489105,50.697998,82.654472,50.334198C82.822586,49.970398,83.051346,49.73613,83.337975,49.634155C83.616341,49.5308,83.908485,49.570763,84.214409,49.755424C84.518951,49.938698,84.826256,50.218445,85.134941,50.593269C85.446373,50.968094,85.744034,51.389778,86.027908,51.861061C86.310402,52.335106,86.565338,52.810532,86.794098,53.288712C87.025604,53.765511,87.218529,54.203728,87.372871,54.600601C87.529968,55.000237,87.631943,55.303398,87.676041,55.510109z"/>
    <path transform="matrix(1,0,0,-1,0,0)" style="stroke:none;fill:#000000;fill-rule:evenodd" d="M69.606796,65.635933C69.477257,65.42923,69.314651,65.313469,69.116211,65.288666C68.920532,65.266617,68.737251,65.30658,68.564995,65.409935C68.391365,65.516045,68.270096,65.657982,68.201195,65.834366C68.135048,66.013512,68.169495,66.206436,68.305923,66.413147C69.216812,67.842171,69.981621,69.364899,70.598984,70.982719C71.216339,72.603287,71.621483,74.270721,71.817169,75.987755C72.011467,77.70755,71.924652,79.412178,71.55809,81.103027C71.304535,82.28952,70.86908,83.280334,70.251717,84.074081C69.634354,84.87059,68.892967,85.482437,68.030319,85.90963C67.16629,86.335442,66.238869,86.583488,65.246681,86.65377C64.257248,86.722672,63.252659,86.616562,62.231533,86.334061C61.213161,86.050186,60.243023,85.603699,59.321117,84.994614C57.960991,84.082352,56.808952,83.001968,55.864998,81.753464C54.919662,80.503586,54.175522,79.143463,53.632576,77.674469C53.092384,76.204102,52.745117,74.678619,52.590778,73.09938C52.43644,71.522911,52.461243,69.947815,52.66795,68.375473C52.873276,66.80175,53.259125,65.290047,53.8255,63.83897C54.343643,62.505028,54.977539,61.271683,55.727192,60.140316C56.476845,59.011703,57.299534,57.957504,58.196636,56.976341C59.096497,55.997932,60.034939,55.058113,61.013348,54.154121C61.994511,53.25013,62.982563,52.34613,63.978886,51.442139C64.973831,50.538147,65.94397,49.603836,66.889297,48.641968C67.83326,47.678719,68.709686,46.643814,69.5186,45.538628C70.186951,44.626366,70.681664,43.653465,71.001366,42.61718C71.32383,41.580902,71.456116,40.555641,71.398239,39.541405C71.343124,38.527168,71.089561,37.592857,70.637566,36.741226C70.188324,35.889603,69.532379,35.178535,68.669724,34.608025C67.805695,34.038895,66.723938,33.690254,65.423065,33.560715C64.70649,33.494568,63.973373,33.533157,63.223721,33.676476C62.476822,33.819786,61.801582,34.098152,61.195248,34.508804C60.591667,34.91671,60.134159,35.483078,59.822723,36.206551C59.547115,36.852852,59.442383,37.481239,59.50853,38.091705C59.577431,38.700798,59.795162,39.256149,60.158962,39.756378C60.522766,40.259361,60.992676,40.678284,61.570076,41.013145C61.775402,41.137169,61.969704,41.161972,62.154362,41.084808C62.337643,41.010391,62.47958,40.887749,62.578796,40.715492C62.678017,40.541862,62.712467,40.359955,62.683529,40.169785C62.653214,39.982376,62.536079,39.823898,62.33075,39.69574C61.823631,39.409111,61.470856,39.057709,61.272419,38.642921C61.076736,38.226753,61.020237,37.802315,61.10154,37.369614C61.181469,36.939667,61.379906,36.542793,61.696854,36.178993C62.012424,35.819321,62.424458,35.539581,62.931576,35.341141C63.474522,35.135818,64.040894,35.036598,64.629318,35.043488C65.216362,35.047623,65.792381,35.124794,66.354622,35.274994C67.137344,35.481705,67.798805,35.813812,68.338997,36.272697C68.881943,36.735718,69.298111,37.282799,69.584747,37.915321C69.87413,38.550591,70.032608,39.229965,70.058792,39.954811C70.08773,40.682419,69.977486,41.415535,69.728058,42.15416C69.437294,42.980988,69.034904,43.765091,68.520897,44.507851C68.009644,45.253372,67.429489,45.965813,66.77906,46.646568C66.128624,47.325943,65.445114,47.977753,64.728539,48.603378C64.014709,49.231766,63.303646,49.839485,62.595337,50.427902C61.885643,51.014946,61.225563,51.592346,60.61647,52.158722C59.002789,53.653893,57.5214,55.248283,56.173676,56.943268C54.828712,58.636879,53.709743,60.454506,52.816776,62.394787C51.923809,64.337822,51.336761,66.426926,51.058399,68.662102C50.873741,70.21653,50.870987,71.776474,51.047375,73.341919C51.226521,74.910126,51.587566,76.435616,52.127758,77.917007C52.670704,79.397018,53.390041,80.77919,54.283009,82.062149C55.17598,83.347855,56.239822,84.493004,57.474545,85.496216C58.301369,86.175591,59.227409,86.739212,60.25267,87.188446C61.277931,87.636307,62.337643,87.940857,63.433182,88.10347C64.527344,88.264694,65.602219,88.259186,66.657791,88.086929C67.71199,87.9133,68.687637,87.535713,69.584747,86.951424C70.484604,86.369888,71.245277,85.562363,71.866776,84.526077C72.54615,83.397461,73.009171,82.184792,73.255836,80.888062C73.505264,79.594078,73.581055,78.269783,73.481834,76.913795C73.385376,75.560562,73.156616,74.215591,72.792816,72.878899C72.429016,71.540825,71.96875,70.255112,71.41478,69.020393C70.863564,67.788429,70.259979,66.661194,69.606796,65.635933z"/>
    <path transform="matrix(1,0,0,-1,0,0)" style="stroke:none;fill:#000000;fill-rule:evenodd" d="M20.013508,50.775169C20.483419,52.927666,20.934038,55.08567,21.363987,57.246437C21.79669,59.4072,22.226639,61.563828,22.65383,63.717705C23.564713,68.248688,24.478352,72.779678,25.39337,77.310669C26.308388,81.844414,27.220648,86.375404,28.132908,90.903641C28.179764,91.113098,28.281738,91.259171,28.436077,91.344604C28.590418,91.4328,28.758537,91.46312,28.943195,91.438316C29.130608,91.416267,29.290462,91.340477,29.422752,91.212318C29.555044,91.086914,29.621189,90.921555,29.621189,90.716225C29.561935,87.268372,29.52335,83.816391,29.505436,80.358887C29.490276,76.904144,29.555044,73.457672,29.69836,70.018097C29.841677,66.578506,30.114529,63.147194,30.519672,59.726906C31.948696,64.42601,33.405281,69.116852,34.890808,73.799431C36.374954,78.484756,37.896309,83.160446,39.454868,87.827858C39.523773,88.022156,39.638149,88.161346,39.796623,88.24678C39.957855,88.334976,40.128731,88.369431,40.309254,88.351517C40.4884,88.336349,40.641361,88.268829,40.766762,88.14756C40.89492,88.026291,40.95142,87.849907,40.937637,87.618393C40.812237,85.292267,40.630337,82.963379,40.391937,80.634499C40.156292,78.308365,39.906868,75.98362,39.642284,73.661621C39.377701,71.342392,39.129654,69.017639,38.898144,66.688751C38.669388,64.362625,38.502647,62.030983,38.396538,59.693832C38.293182,57.297424,38.282158,54.888611,38.363464,52.4674C38.44339,50.048943,38.685925,47.652534,39.091068,45.279556C39.274345,44.232246,39.487942,43.180801,39.730476,42.126602C39.973011,41.071022,40.266533,40.037498,40.612423,39.023262C40.806725,38.434837,41.02721,37.846413,41.27388,37.259369C41.523304,36.670952,41.860924,36.141785,42.288116,35.671875C42.482418,35.451385,42.769051,35.250191,43.14801,35.065536C43.529728,34.882256,43.943142,34.748589,44.388245,34.663147C44.831974,34.574951,45.248142,34.569443,45.633991,34.646614C46.019844,34.721024,46.318878,34.90844,46.532475,35.208855C46.74469,35.506508,46.798435,35.954369,46.692326,36.553818C46.659252,36.796349,46.704727,36.994789,46.830128,37.149132C46.958286,37.303467,47.119518,37.409576,47.315197,37.468834C47.513638,37.526711,47.695538,37.515686,47.860901,37.43576C48.026264,37.354454,48.126862,37.193222,48.16407,36.950691C48.277069,36.234108,48.21368,35.611237,47.971146,35.082069C47.731365,34.552902,47.375832,34.12571,46.901787,33.797737C46.427742,33.46701,45.894444,33.249283,45.303265,33.141792C44.710709,33.031548,44.11264,33.046707,43.506302,33.18589C42.899963,33.322319,42.350128,33.592415,41.85817,33.996178C41.14159,34.584602,40.53801,35.297043,40.050182,36.134895C39.560978,36.975494,39.151703,37.894646,38.820972,38.890968C38.493,39.890045,38.228416,40.909798,38.027222,41.950211C37.82465,42.993385,37.663422,44.017273,37.542152,45.020485C37.420887,46.023697,37.307888,46.945602,37.205914,47.787582C36.882072,50.598778,36.734623,53.405846,36.764938,56.210152C36.793877,59.01722,36.931683,61.822899,37.178352,64.627213C37.427776,67.430138,37.715786,70.234444,38.043758,73.038757C38.374489,75.845818,38.677658,78.650124,38.953262,81.450302C37.555935,77.219719,36.193054,72.983627,34.863247,68.739273C33.532063,64.494919,32.228439,60.235401,30.949619,55.962105C30.894497,55.741615,30.75256,55.584526,30.525185,55.493568C30.300564,55.401245,30.084211,55.391594,29.874748,55.466011C29.668043,55.543182,29.54402,55.708549,29.499924,55.962105C28.841221,60.385605,28.420919,64.82151,28.23764,69.26844C28.052982,73.713989,27.973057,78.160919,27.995106,82.607849C27.153124,78.414474,26.308388,74.214218,25.459515,70.007065C24.6134,65.802673,23.764528,61.598282,22.912901,57.395264C22.383734,54.745293,21.833897,52.098083,21.264767,49.452255C20.69426,46.809174,20.010752,44.196419,19.214247,41.613976C19.159126,41.429314,19.076443,41.13028,18.9662,40.715492C18.855957,40.299324,18.715397,39.839058,18.547276,39.33194C18.381912,38.827576,18.18623,38.339752,17.962988,37.865707C17.738369,37.391663,17.486187,36.992035,17.207823,36.669571C16.932217,36.349869,16.626291,36.165207,16.292805,36.118355C15.962077,36.074257,15.599652,36.235489,15.206912,36.603424C15.033279,36.764656,14.954731,36.939667,14.96989,37.127083C14.987803,37.317245,15.069108,37.485367,15.212424,37.628685C15.358496,37.774757,15.529373,37.860199,15.725054,37.882248C15.919357,37.904297,16.102636,37.835388,16.27627,37.678291C16.232172,37.722389,16.245953,37.890511,16.320366,38.18541C16.397537,38.478935,16.509157,38.849625,16.656609,39.298866C16.806814,39.750862,16.973557,40.231796,17.158215,40.74305C17.341492,41.257057,17.523394,41.758667,17.703917,42.247871C17.88306,42.735695,18.040157,43.162888,18.172451,43.526688C18.304741,43.890488,18.387424,44.145424,18.420498,44.292877C18.720909,45.36499,19.00065,46.442619,19.258343,47.523003C19.518793,48.60614,19.770973,49.690651,20.013508,50.775169z"/>
</svg>
